# Blender 4.1.1
# www.blender.org
o Cube.001
v -0.250000 0.000000 0.250000
v -0.250000 0.600000 0.250000
v -0.250000 0.000000 -0.750000
v -0.250000 0.600000 -0.750000
v 0.250000 0.000000 0.250000
v 0.250000 0.600000 0.250000
v 0.250000 0.000000 -0.750000
v 0.250000 0.600000 -0.750000
v -0.150000 0.000000 0.150000
v -0.150000 0.000000 -0.650000
v 0.150000 0.000000 0.150000
v 0.150000 0.000000 -0.650000
v -0.150000 0.500000 0.150000
v -0.150000 0.500000 -0.650000
v 0.150000 0.500000 0.150000
v 0.150000 0.500000 -0.650000
v 0.000000 0.600000 -0.150000
v 0.000000 0.700000 -0.150000
v 0.106066 0.600000 -0.106066
v 0.106066 0.700000 -0.106066
v 0.150000 0.600000 0.000000
v 0.150000 0.700000 0.000000
v 0.106066 0.600000 0.106066
v 0.106066 0.700000 0.106066
v 0.000000 0.600000 0.150000
v 0.000000 0.700000 0.150000
v -0.106066 0.600000 0.106066
v -0.106066 0.700000 0.106066
v -0.150000 0.600000 0.000000
v -0.150000 0.700000 0.000000
v -0.106066 0.600000 -0.106066
v -0.106066 0.700000 -0.106066
v 0.000000 0.600000 -0.650000
v 0.000000 0.700000 -0.650000
v 0.106066 0.600000 -0.606066
v 0.106066 0.700000 -0.606066
v 0.150000 0.600000 -0.500000
v 0.150000 0.700000 -0.500000
v 0.106066 0.600000 -0.393934
v 0.106066 0.700000 -0.393934
v 0.000000 0.600000 -0.350000
v 0.000000 0.700000 -0.350000
v -0.106066 0.600000 -0.393934
v -0.106066 0.700000 -0.393934
v -0.150000 0.600000 -0.500000
v -0.150000 0.700000 -0.500000
v -0.106066 0.600000 -0.606066
v -0.106066 0.700000 -0.606066
vn -1.0000 -0.0000 -0.0000
vn -0.0000 -0.0000 -1.0000
vn 1.0000 -0.0000 -0.0000
vn -0.0000 -0.0000 1.0000
vn -0.0000 -1.0000 -0.0000
vn -0.0000 1.0000 -0.0000
vn 0.7071 -0.0000 -0.7071
vn 0.7071 -0.0000 0.7071
vn -0.7071 -0.0000 0.7071
vn -0.7071 -0.0000 -0.7071
vt 0.375000 0.000000
vt 0.625000 0.000000
vt 0.625000 0.250000
vt 0.375000 0.250000
vt 0.625000 0.500000
vt 0.375000 0.500000
vt 0.625000 0.750000
vt 0.375000 0.750000
vt 0.625000 1.000000
vt 0.375000 1.000000
vt 0.875000 0.500000
vt 0.875000 0.750000
vt 0.125000 0.500000
vt 0.125000 0.750000
vt 1.000000 0.500000
vt 1.000000 1.000000
vt 0.875000 1.000000
vt 0.750000 1.000000
vt 0.750000 0.500000
vt 0.500000 1.000000
vt 0.500000 0.500000
vt 0.250000 1.000000
vt 0.250000 0.500000
vt 0.419706 0.419706
vt 0.250000 0.490000
vt 0.080294 0.419706
vt 0.010000 0.250000
vt 0.080294 0.080294
vt 0.250000 0.010000
vt 0.419706 0.080294
vt 0.490000 0.250000
vt 0.125000 1.000000
vt 0.000000 1.000000
vt 0.000000 0.500000
s 0
f 1/1/1 2/2/1 4/3/1 3/4/1
f 3/4/2 4/3/2 8/5/2 7/6/2
f 7/6/3 8/5/3 6/7/3 5/8/3
f 5/8/4 6/7/4 2/9/4 1/10/4
f 3/4/5 7/6/5 12/6/5 10/4/5
f 8/5/6 4/11/6 2/12/6 6/7/6
f 11/8/2 9/10/2 13/10/2 15/8/2
f 1/1/5 3/4/5 10/4/5 9/1/5
f 7/6/5 5/8/5 11/8/5 12/6/5
f 5/8/5 1/10/5 9/10/5 11/8/5
f 14/13/5 16/6/5 15/8/5 13/14/5
f 10/4/4 12/6/4 16/6/4 14/4/4
f 12/6/1 11/8/1 15/8/1 16/6/1
f 9/1/3 10/4/3 14/4/3 13/1/3
s 1
f 17/15/2 18/16/2 20/17/7 19/11/7
f 19/11/7 20/17/7 22/18/3 21/19/3
f 21/19/3 22/18/3 24/9/8 23/5/8
f 23/5/8 24/9/8 26/20/4 25/21/4
f 25/21/4 26/20/4 28/10/9 27/6/9
f 27/6/9 28/10/9 30/22/1 29/23/1
f 20/24/6 18/25/6 32/26/6 30/27/6 28/28/6 26/29/6 24/30/6 22/31/6
f 29/23/1 30/22/1 32/32/10 31/13/10
f 31/13/10 32/32/10 18/33/2 17/34/2
f 33/15/2 34/16/2 36/17/7 35/11/7
f 35/11/7 36/17/7 38/18/3 37/19/3
f 37/19/3 38/18/3 40/9/8 39/5/8
f 39/5/8 40/9/8 42/20/4 41/21/4
f 41/21/4 42/20/4 44/10/9 43/6/9
f 43/6/9 44/10/9 46/22/1 45/23/1
f 36/24/6 34/25/6 48/26/6 46/27/6 44/28/6 42/29/6 40/30/6 38/31/6
f 45/23/1 46/22/1 48/32/10 47/13/10
f 47/13/10 48/32/10 34/33/2 33/34/2
