# Blender 4.1.1
# www.blender.org
o Cube.003
v -0.250000 0.000000 0.250000
v -0.250000 0.600000 0.250000
v -0.250000 0.000000 -0.750000
v -0.250000 0.600000 -0.750000
v 1.250000 0.000000 0.250000
v 1.250000 0.600000 0.250000
v 1.250000 0.000000 -0.750000
v 1.250000 0.600000 -0.750000
v -0.150000 0.000000 0.150000
v -0.150000 0.000000 -0.650000
v 1.150000 0.000000 0.150000
v 1.150000 0.000000 -0.650000
v -0.150000 0.500000 0.150000
v -0.150000 0.500000 -0.650000
v 1.150000 0.500000 0.150000
v 1.150000 0.500000 -0.650000
v 0.000000 0.600000 -0.150000
v 0.000000 0.700000 -0.150000
v 0.106066 0.600000 -0.106066
v 0.106066 0.700000 -0.106066
v 0.150000 0.600000 0.000000
v 0.150000 0.700000 0.000000
v 0.106066 0.600000 0.106066
v 0.106066 0.700000 0.106066
v 0.000000 0.600000 0.150000
v 0.000000 0.700000 0.150000
v -0.106066 0.600000 0.106066
v -0.106066 0.700000 0.106066
v -0.150000 0.600000 0.000000
v -0.150000 0.700000 0.000000
v -0.106066 0.600000 -0.106066
v -0.106066 0.700000 -0.106066
v 0.000000 0.600000 -0.650000
v 0.000000 0.700000 -0.650000
v 0.106066 0.600000 -0.606066
v 0.106066 0.700000 -0.606066
v 0.150000 0.600000 -0.500000
v 0.150000 0.700000 -0.500000
v 0.106066 0.600000 -0.393934
v 0.106066 0.700000 -0.393934
v 0.000000 0.600000 -0.350000
v 0.000000 0.700000 -0.350000
v -0.106066 0.600000 -0.393934
v -0.106066 0.700000 -0.393934
v -0.150000 0.600000 -0.500000
v -0.150000 0.700000 -0.500000
v -0.106066 0.600000 -0.606066
v -0.106066 0.700000 -0.606066
v 0.500000 0.600000 -0.150000
v 0.500000 0.700000 -0.150000
v 0.606066 0.600000 -0.106066
v 0.606066 0.700000 -0.106066
v 0.650000 0.600000 0.000000
v 0.650000 0.700000 0.000000
v 0.606066 0.600000 0.106066
v 0.606066 0.700000 0.106066
v 0.500000 0.600000 0.150000
v 0.500000 0.700000 0.150000
v 0.393934 0.600000 0.106066
v 0.393934 0.700000 0.106066
v 0.350000 0.600000 0.000000
v 0.350000 0.700000 0.000000
v 0.393934 0.600000 -0.106066
v 0.393934 0.700000 -0.106066
v 0.500000 0.600000 -0.650000
v 0.500000 0.700000 -0.650000
v 0.606066 0.600000 -0.606066
v 0.606066 0.700000 -0.606066
v 0.650000 0.600000 -0.500000
v 0.650000 0.700000 -0.500000
v 0.606066 0.600000 -0.393934
v 0.606066 0.700000 -0.393934
v 0.500000 0.600000 -0.350000
v 0.500000 0.700000 -0.350000
v 0.393934 0.600000 -0.393934
v 0.393934 0.700000 -0.393934
v 0.350000 0.600000 -0.500000
v 0.350000 0.700000 -0.500000
v 0.393934 0.600000 -0.606066
v 0.393934 0.700000 -0.606066
v 1.000000 0.600000 -0.150000
v 1.000000 0.700000 -0.150000
v 1.106066 0.600000 -0.106066
v 1.106066 0.700000 -0.106066
v 1.150000 0.600000 0.000000
v 1.150000 0.700000 0.000000
v 1.106066 0.600000 0.106066
v 1.106066 0.700000 0.106066
v 1.000000 0.600000 0.150000
v 1.000000 0.700000 0.150000
v 0.893934 0.600000 0.106066
v 0.893934 0.700000 0.106066
v 0.850000 0.600000 0.000000
v 0.850000 0.700000 0.000000
v 0.893934 0.600000 -0.106066
v 0.893934 0.700000 -0.106066
v 1.000000 0.600000 -0.650000
v 1.000000 0.700000 -0.650000
v 1.106066 0.600000 -0.606066
v 1.106066 0.700000 -0.606066
v 1.150000 0.600000 -0.500000
v 1.150000 0.700000 -0.500000
v 1.106066 0.600000 -0.393934
v 1.106066 0.700000 -0.393934
v 1.000000 0.600000 -0.350000
v 1.000000 0.700000 -0.350000
v 0.893934 0.600000 -0.393934
v 0.893934 0.700000 -0.393934
v 0.850000 0.600000 -0.500000
v 0.850000 0.700000 -0.500000
v 0.893934 0.600000 -0.606066
v 0.893934 0.700000 -0.606066
vn -1.0000 -0.0000 -0.0000
vn -0.0000 -0.0000 -1.0000
vn 1.0000 -0.0000 -0.0000
vn -0.0000 -0.0000 1.0000
vn -0.0000 -1.0000 -0.0000
vn -0.0000 1.0000 -0.0000
vn 0.7071 -0.0000 -0.7071
vn 0.7071 -0.0000 0.7071
vn -0.7071 -0.0000 0.7071
vn -0.7071 -0.0000 -0.7071
vt 0.375000 0.000000
vt 0.625000 0.000000
vt 0.625000 0.250000
vt 0.375000 0.250000
vt 0.625000 0.500000
vt 0.375000 0.500000
vt 0.625000 0.750000
vt 0.375000 0.750000
vt 0.625000 1.000000
vt 0.375000 1.000000
vt 0.875000 0.500000
vt 0.875000 0.750000
vt 0.125000 0.500000
vt 0.125000 0.750000
vt 1.000000 0.500000
vt 1.000000 1.000000
vt 0.875000 1.000000
vt 0.750000 1.000000
vt 0.750000 0.500000
vt 0.500000 1.000000
vt 0.500000 0.500000
vt 0.250000 1.000000
vt 0.250000 0.500000
vt 0.419706 0.419706
vt 0.250000 0.490000
vt 0.080294 0.419706
vt 0.010000 0.250000
vt 0.080294 0.080294
vt 0.250000 0.010000
vt 0.419706 0.080294
vt 0.490000 0.250000
vt 0.125000 1.000000
vt 0.000000 1.000000
vt 0.000000 0.500000
s 0
f 1/1/1 2/2/1 4/3/1 3/4/1
f 3/4/2 4/3/2 8/5/2 7/6/2
f 7/6/3 8/5/3 6/7/3 5/8/3
f 5/8/4 6/7/4 2/9/4 1/10/4
f 3/4/5 7/6/5 12/6/5 10/4/5
f 8/5/6 4/11/6 2/12/6 6/7/6
f 11/8/2 9/10/2 13/10/2 15/8/2
f 1/1/5 3/4/5 10/4/5 9/1/5
f 7/6/5 5/8/5 11/8/5 12/6/5
f 5/8/5 1/10/5 9/10/5 11/8/5
f 14/13/5 16/6/5 15/8/5 13/14/5
f 10/4/4 12/6/4 16/6/4 14/4/4
f 12/6/1 11/8/1 15/8/1 16/6/1
f 9/1/3 10/4/3 14/4/3 13/1/3
s 1
f 17/15/2 18/16/2 20/17/7 19/11/7
f 19/11/7 20/17/7 22/18/3 21/19/3
f 21/19/3 22/18/3 24/9/8 23/5/8
f 23/5/8 24/9/8 26/20/4 25/21/4
f 25/21/4 26/20/4 28/10/9 27/6/9
f 27/6/9 28/10/9 30/22/1 29/23/1
f 20/24/6 18/25/6 32/26/6 30/27/6 28/28/6 26/29/6 24/30/6 22/31/6
f 29/23/1 30/22/1 32/32/10 31/13/10
f 31/13/10 32/32/10 18/33/2 17/34/2
f 33/15/2 34/16/2 36/17/7 35/11/7
f 35/11/7 36/17/7 38/18/3 37/19/3
f 37/19/3 38/18/3 40/9/8 39/5/8
f 39/5/8 40/9/8 42/20/4 41/21/4
f 41/21/4 42/20/4 44/10/9 43/6/9
f 43/6/9 44/10/9 46/22/1 45/23/1
f 36/24/6 34/25/6 48/26/6 46/27/6 44/28/6 42/29/6 40/30/6 38/31/6
f 45/23/1 46/22/1 48/32/10 47/13/10
f 47/13/10 48/32/10 34/33/2 33/34/2
f 49/15/2 50/16/2 52/17/7 51/11/7
f 51/11/7 52/17/7 54/18/3 53/19/3
f 53/19/3 54/18/3 56/9/8 55/5/8
f 55/5/8 56/9/8 58/20/4 57/21/4
f 57/21/4 58/20/4 60/10/9 59/6/9
f 59/6/9 60/10/9 62/22/1 61/23/1
f 52/24/6 50/25/6 64/26/6 62/27/6 60/28/6 58/29/6 56/30/6 54/31/6
f 61/23/1 62/22/1 64/32/10 63/13/10
f 63/13/10 64/32/10 50/33/2 49/34/2
f 65/15/2 66/16/2 68/17/7 67/11/7
f 67/11/7 68/17/7 70/18/3 69/19/3
f 69/19/3 70/18/3 72/9/8 71/5/8
f 71/5/8 72/9/8 74/20/4 73/21/4
f 73/21/4 74/20/4 76/10/9 75/6/9
f 75/6/9 76/10/9 78/22/1 77/23/1
f 68/24/6 66/25/6 80/26/6 78/27/6 76/28/6 74/29/6 72/30/6 70/31/6
f 77/23/1 78/22/1 80/32/10 79/13/10
f 79/13/10 80/32/10 66/33/2 65/34/2
f 81/15/2 82/16/2 84/17/7 83/11/7
f 83/11/7 84/17/7 86/18/3 85/19/3
f 85/19/3 86/18/3 88/9/8 87/5/8
f 87/5/8 88/9/8 90/20/4 89/21/4
f 89/21/4 90/20/4 92/10/9 91/6/9
f 91/6/9 92/10/9 94/22/1 93/23/1
f 84/24/6 82/25/6 96/26/6 94/27/6 92/28/6 90/29/6 88/30/6 86/31/6
f 93/23/1 94/22/1 96/32/10 95/13/10
f 95/13/10 96/32/10 82/33/2 81/34/2
f 97/15/2 98/16/2 100/17/7 99/11/7
f 99/11/7 100/17/7 102/18/3 101/19/3
f 101/19/3 102/18/3 104/9/8 103/5/8
f 103/5/8 104/9/8 106/20/4 105/21/4
f 105/21/4 106/20/4 108/10/9 107/6/9
f 107/6/9 108/10/9 110/22/1 109/23/1
f 100/24/6 98/25/6 112/26/6 110/27/6 108/28/6 106/29/6 104/30/6 102/31/6
f 109/23/1 110/22/1 112/32/10 111/13/10
f 111/13/10 112/32/10 98/33/2 97/34/2
