# Blender 4.1.1
# www.blender.org
o Cylinder
v 0.000000 -0.000000 -0.200000
v 0.000000 0.200000 -0.200000
v 0.076537 -0.000000 -0.184776
v 0.076537 0.200000 -0.184776
v 0.141421 -0.000000 -0.141421
v 0.141421 0.200000 -0.141421
v 0.184776 -0.000000 -0.076537
v 0.184776 0.200000 -0.076537
v 0.200000 -0.000000 0.000000
v 0.200000 0.200000 0.000000
v 0.184776 -0.000000 0.076537
v 0.184776 0.200000 0.076537
v 0.141421 -0.000000 0.141421
v 0.141421 0.200000 0.141421
v 0.076537 -0.000000 0.184776
v 0.076537 0.200000 0.184776
v 0.000000 -0.000000 0.200000
v 0.000000 0.200000 0.200000
v -0.076537 -0.000000 0.184776
v -0.076537 0.200000 0.184776
v -0.141421 -0.000000 0.141421
v -0.141421 0.200000 0.141421
v -0.184776 -0.000000 0.076537
v -0.184776 0.200000 0.076537
v -0.200000 -0.000000 0.000000
v -0.200000 0.200000 0.000000
v -0.184776 -0.000000 -0.076537
v -0.184776 0.200000 -0.076537
v -0.141421 -0.000000 -0.141421
v -0.141421 0.200000 -0.141421
v -0.076537 -0.000000 -0.184776
v -0.076537 0.200000 -0.184776
v 0.000000 0.200000 -0.143107
v 0.054765 0.200000 -0.132214
v 0.101192 0.200000 -0.101192
v 0.132214 0.200000 -0.054765
v 0.143107 0.200000 -0.000000
v 0.132214 0.200000 0.054765
v 0.101192 0.200000 0.101192
v 0.054765 0.200000 0.132214
v 0.000000 0.200000 0.143107
v -0.054765 0.200000 0.132214
v -0.101192 0.200000 0.101192
v -0.132214 0.200000 0.054765
v -0.143107 0.200000 -0.000000
v -0.132214 0.200000 -0.054765
v -0.101192 0.200000 -0.101192
v -0.054765 0.200000 -0.132214
v 0.000000 0.280000 -0.143107
v 0.054765 0.280000 -0.132214
v 0.101192 0.280000 -0.101192
v 0.132214 0.280000 -0.054765
v 0.143107 0.280000 -0.000000
v 0.132214 0.280000 0.054765
v 0.101192 0.280000 0.101192
v 0.054765 0.280000 0.132214
v 0.000000 0.280000 0.143107
v -0.054765 0.280000 0.132214
v -0.101192 0.280000 0.101192
v -0.132214 0.280000 0.054765
v -0.143107 0.280000 -0.000000
v -0.132214 0.280000 -0.054765
v -0.101192 0.280000 -0.101192
v -0.054765 0.280000 -0.132214
v 0.000000 0.280000 -0.080344
v 0.030746 0.280000 -0.074228
v 0.056811 0.280000 -0.056811
v 0.074228 0.280000 -0.030746
v 0.080344 0.280000 -0.000000
v 0.074228 0.280000 0.030746
v 0.056811 0.280000 0.056811
v 0.030746 0.280000 0.074228
v 0.000000 0.280000 0.080344
v -0.030746 0.280000 0.074228
v -0.056811 0.280000 0.056811
v -0.074228 0.280000 0.030746
v -0.080344 0.280000 -0.000000
v -0.074228 0.280000 -0.030746
v -0.056811 0.280000 -0.056811
v -0.030746 0.280000 -0.074228
v -0.000000 2.936170 -0.080344
v -0.006440 2.952509 -0.074375
v 0.006440 2.952509 -0.074375
v -0.006440 2.975402 -0.053943
v -0.000000 2.980710 -0.043907
v 0.006440 2.975402 -0.053943
v 0.026593 2.975402 -0.047373
v 0.014693 2.975402 -0.052301
v 0.016802 2.980710 -0.040565
v 0.034412 2.952509 -0.066249
v 0.030746 2.936170 -0.074228
v 0.022512 2.952509 -0.071178
v 0.042697 2.975402 -0.033590
v 0.033590 2.975402 -0.042697
v 0.031047 2.980710 -0.031047
v 0.057145 2.952509 -0.048037
v 0.056811 2.936170 -0.056811
v 0.048037 2.952509 -0.057145
v 0.052301 2.975402 -0.014693
v 0.047372 2.975402 -0.026593
v 0.040564 2.980710 -0.016802
v 0.071178 2.952509 -0.022512
v 0.074228 2.936170 -0.030746
v 0.066249 2.952509 -0.034412
v 0.053943 2.975402 0.006440
v 0.053943 2.975402 -0.006440
v 0.043907 2.980710 -0.000000
v 0.074375 2.952509 0.006440
v 0.080343 2.936170 -0.000000
v 0.074375 2.952509 -0.006440
v 0.047372 2.975402 0.026593
v 0.052301 2.975402 0.014693
v 0.040564 2.980710 0.016802
v 0.066249 2.952509 0.034412
v 0.074228 2.936170 0.030746
v 0.071178 2.952509 0.022512
v 0.033590 2.975402 0.042697
v 0.042697 2.975402 0.033590
v 0.031047 2.980710 0.031047
v 0.048037 2.952509 0.057145
v 0.056811 2.936170 0.056811
v 0.057145 2.952509 0.048037
v 0.014693 2.975402 0.052302
v 0.026593 2.975402 0.047372
v 0.016802 2.980710 0.040565
v 0.022512 2.952509 0.071178
v 0.030746 2.936170 0.074228
v 0.034412 2.952509 0.066249
v -0.006440 2.975402 0.053943
v 0.006440 2.975402 0.053943
v -0.000000 2.980710 0.043907
v -0.006440 2.952509 0.074375
v -0.000000 2.936170 0.080344
v 0.006440 2.952509 0.074375
v -0.026593 2.975402 0.047373
v -0.014693 2.975402 0.052301
v -0.016802 2.980710 0.040565
v -0.034412 2.952509 0.066249
v -0.030746 2.936170 0.074228
v -0.022512 2.952509 0.071178
v -0.042698 2.975402 0.033590
v -0.033590 2.975402 0.042697
v -0.031047 2.980710 0.031047
v -0.057145 2.952509 0.048037
v -0.056812 2.936170 0.056811
v -0.048037 2.952509 0.057145
v -0.052302 2.975402 0.014693
v -0.047373 2.975402 0.026593
v -0.040565 2.980710 0.016802
v -0.071178 2.952509 0.022512
v -0.074228 2.936170 0.030746
v -0.066249 2.952509 0.034412
v -0.053943 2.975402 -0.006440
v -0.053943 2.975402 0.006440
v -0.043907 2.980710 -0.000000
v -0.074375 2.952509 -0.006440
v -0.080344 2.936170 -0.000000
v -0.074375 2.952509 0.006440
v -0.047373 2.975402 -0.026593
v -0.052302 2.975402 -0.014693
v -0.040565 2.980710 -0.016802
v -0.066249 2.952509 -0.034412
v -0.074228 2.936170 -0.030746
v -0.071178 2.952509 -0.022512
v -0.033590 2.975402 -0.042697
v -0.042697 2.975402 -0.033590
v -0.031047 2.980710 -0.031047
v -0.048037 2.952509 -0.057145
v -0.056812 2.936170 -0.056811
v -0.057145 2.952509 -0.048037
v -0.014693 2.975402 -0.052302
v -0.026593 2.975402 -0.047372
v -0.016802 2.980710 -0.040565
v -0.022512 2.952509 -0.071178
v -0.030746 2.936170 -0.074228
v -0.034412 2.952509 -0.066249
v -0.000000 2.989103 -0.000000
vn -0.0000 -0.0000 -1.0000
vn 0.3827 -0.0000 -0.9239
vn 0.7071 -0.0000 -0.7071
vn 0.9239 -0.0000 -0.3827
vn 1.0000 -0.0000 -0.0000
vn 0.9239 -0.0000 0.3827
vn 0.7071 -0.0000 0.7071
vn 0.3827 -0.0000 0.9239
vn -0.0000 -0.0000 1.0000
vn -0.3827 -0.0000 0.9239
vn -0.7071 -0.0000 0.7071
vn -0.9239 -0.0000 0.3827
vn -1.0000 -0.0000 -0.0000
vn -0.9239 -0.0000 -0.3827
vn -0.7071 -0.0000 -0.7071
vn -0.0000 1.0000 -0.0000
vn -0.3827 -0.0000 -0.9239
vn -0.0000 -1.0000 -0.0000
vn 0.7648 0.4874 -0.4213
vn 0.6819 0.4874 -0.5454
vn 0.4790 0.7893 -0.3840
vn 0.5381 0.7893 -0.2956
vn -0.0000 0.1451 -0.9894
vn 0.3786 0.1451 -0.9141
vn -0.0000 0.9440 0.3300
vn 0.1263 0.9440 0.3049
vn -0.7648 0.4874 0.4213
vn -0.6819 0.4874 0.5454
vn -0.4790 0.7893 0.3840
vn -0.5381 0.7893 0.2956
vn 0.8678 0.4874 -0.0966
vn 0.8387 0.4874 -0.2429
vn 0.5895 0.7893 -0.1715
vn 0.6103 0.7893 -0.0672
vn -0.8678 0.4874 0.0966
vn -0.8387 0.4874 0.2429
vn -0.5895 0.7893 0.1715
vn -0.6103 0.7893 0.0672
vn 0.8387 0.4874 0.2429
vn 0.8678 0.4874 0.0966
vn 0.6103 0.7893 0.0672
vn 0.5895 0.7893 0.1715
vn -0.8387 0.4874 -0.2429
vn -0.8678 0.4874 -0.0966
vn -0.6103 0.7893 -0.0672
vn -0.5895 0.7893 -0.1715
vn 0.6819 0.4874 0.5454
vn 0.7648 0.4874 0.4213
vn 0.5381 0.7893 0.2956
vn 0.4790 0.7893 0.3840
vn -0.6819 0.4874 -0.5454
vn -0.7648 0.4874 -0.4213
vn -0.5381 0.7893 -0.2956
vn -0.4791 0.7893 -0.3840
vn 0.4213 0.4874 0.7648
vn 0.5454 0.4874 0.6819
vn 0.3840 0.7893 0.4790
vn 0.2956 0.7893 0.5381
vn -0.4213 0.4874 -0.7648
vn -0.5454 0.4874 -0.6819
vn -0.3840 0.7893 -0.4790
vn -0.2956 0.7893 -0.5381
vn 0.0966 0.4874 0.8678
vn 0.2429 0.4874 0.8387
vn 0.1715 0.7893 0.5895
vn 0.0672 0.7893 0.6103
vn -0.2429 0.4874 0.8387
vn -0.0966 0.4874 0.8678
vn -0.0672 0.7893 0.6103
vn -0.1715 0.7893 0.5895
vn -0.5454 0.4874 0.6819
vn -0.4213 0.4874 0.7648
vn -0.2956 0.7893 0.5381
vn -0.3840 0.7893 0.4791
vn -0.0966 0.4874 -0.8678
vn -0.2429 0.4874 -0.8387
vn -0.1715 0.7893 -0.5895
vn -0.0672 0.7893 -0.6103
vn 0.6996 0.1451 -0.6996
vn 0.9141 0.1451 -0.3786
vn 0.9894 0.1451 -0.0000
vn 0.9141 0.1451 0.3786
vn 0.6996 0.1451 0.6996
vn 0.3786 0.1451 0.9141
vn -0.0000 0.1451 0.9894
vn -0.3786 0.1451 0.9141
vn -0.6996 0.1451 0.6996
vn -0.9141 0.1451 0.3786
vn -0.9894 0.1451 -0.0000
vn -0.9141 0.1451 -0.3786
vn -0.6996 0.1451 -0.6996
vn -0.3786 0.1451 -0.9141
vn 0.5454 0.4874 -0.6819
vn 0.4213 0.4874 -0.7648
vn 0.2956 0.7893 -0.5381
vn 0.3840 0.7893 -0.4790
vn 0.0966 0.4874 -0.8678
vn -0.0000 0.9440 -0.3300
vn 0.0672 0.7893 -0.6103
vn 0.1715 0.7893 -0.5895
vn 0.1263 0.9440 -0.3049
vn 0.2429 0.4874 -0.8387
vn 0.2333 0.9440 -0.2333
vn 0.3049 0.9440 -0.1263
vn 0.3300 0.9440 -0.0000
vn 0.3049 0.9440 0.1263
vn 0.2333 0.9440 0.2333
vn -0.1263 0.9440 0.3049
vn -0.2333 0.9440 0.2333
vn -0.3049 0.9440 0.1263
vn -0.3300 0.9440 -0.0000
vn -0.3049 0.9440 -0.1263
vn -0.2333 0.9440 -0.2333
vn -0.1263 0.9440 -0.3049
vt 1.000000 0.500000
vt 1.000000 1.000000
vt 0.937500 1.000000
vt 0.937500 0.500000
vt 0.875000 1.000000
vt 0.875000 0.500000
vt 0.812500 1.000000
vt 0.812500 0.500000
vt 0.750000 1.000000
vt 0.750000 0.500000
vt 0.687500 1.000000
vt 0.687500 0.500000
vt 0.625000 1.000000
vt 0.625000 0.500000
vt 0.562500 1.000000
vt 0.562500 0.500000
vt 0.500000 1.000000
vt 0.500000 0.500000
vt 0.437500 1.000000
vt 0.437500 0.500000
vt 0.375000 1.000000
vt 0.375000 0.500000
vt 0.312500 1.000000
vt 0.312500 0.500000
vt 0.250000 1.000000
vt 0.250000 0.500000
vt 0.187500 1.000000
vt 0.187500 0.500000
vt 0.125000 1.000000
vt 0.125000 0.500000
vt 0.062500 1.000000
vt 0.062500 0.500000
vt 0.000000 1.000000
vt 0.000000 0.500000
vt 0.750000 0.490000
vt 0.841844 0.471731
vt 0.919706 0.419706
vt 0.971731 0.341844
vt 0.990000 0.250000
vt 0.971731 0.158156
vt 0.919706 0.080294
vt 0.841844 0.028269
vt 0.750000 0.010000
vt 0.658156 0.028269
vt 0.580294 0.080294
vt 0.528269 0.158156
vt 0.510000 0.250000
vt 0.528269 0.341844
vt 0.580294 0.419706
vt 0.658156 0.471731
vt 0.447897 0.352794
vt 0.420701 0.393495
vt 0.377544 0.350338
vt 0.391510 0.329438
vt 0.937500 1.000000
vt 0.250000 0.118843
vt 0.300192 0.128827
vt 0.000000 0.000000
vt 0.052103 0.147206
vt 0.079299 0.106505
vt 0.122456 0.149662
vt 0.108490 0.170562
vt 0.472170 0.269238
vt 0.462620 0.317248
vt 0.406233 0.293891
vt 0.411137 0.269238
vt 0.027830 0.230762
vt 0.037380 0.182752
vt 0.093767 0.206109
vt 0.088863 0.230763
vt 0.462620 0.182752
vt 0.472170 0.230762
vt 0.411137 0.230762
vt 0.406233 0.206109
vt 0.037380 0.317248
vt 0.027830 0.269238
vt 0.088863 0.269237
vt 0.093767 0.293891
vt 0.420701 0.106505
vt 0.447897 0.147206
vt 0.391510 0.170562
vt 0.377544 0.149662
vt 0.079299 0.393495
vt 0.052103 0.352794
vt 0.108490 0.329438
vt 0.122456 0.350338
vt 0.352794 0.052103
vt 0.393495 0.079299
vt 0.350338 0.122456
vt 0.329438 0.108490
vt 0.147206 0.447897
vt 0.106505 0.420701
vt 0.149662 0.377544
vt 0.170562 0.391510
vt 0.269238 0.027830
vt 0.317248 0.037380
vt 0.293891 0.093767
vt 0.269237 0.088863
vt 0.182752 0.037380
vt 0.230762 0.027830
vt 0.230762 0.088863
vt 0.206109 0.093767
vt 0.106505 0.079299
vt 0.147206 0.052103
vt 0.170562 0.108490
vt 0.149662 0.122456
vt 0.230762 0.472170
vt 0.182752 0.462620
vt 0.206109 0.406234
vt 0.230762 0.411137
vt 0.875000 1.000000
vt 0.687500 1.000000
vt 0.437500 1.000000
vt 0.393495 0.420701
vt 0.352794 0.447896
vt 0.329438 0.391510
vt 0.350338 0.377544
vt 0.250000 0.490000
vt 0.250000 0.474047
vt 0.250000 0.381157
vt 0.269238 0.411137
vt 0.293891 0.406233
vt 0.300192 0.371173
vt 0.341844 0.471731
vt 0.335739 0.456992
vt 0.342742 0.342742
vt 0.419706 0.419706
vt 0.408425 0.408425
vt 0.371173 0.300192
vt 0.471731 0.341844
vt 0.456992 0.335739
vt 0.381157 0.250000
vt 0.490000 0.250000
vt 0.474047 0.250000
vt 0.371173 0.199808
vt 0.471731 0.158156
vt 0.456992 0.164261
vt 0.342742 0.157258
vt 0.419706 0.080294
vt 0.408425 0.091575
vt 0.341844 0.028269
vt 0.335739 0.043008
vt 0.250000 0.010000
vt 0.250000 0.025954
vt 0.199808 0.128827
vt 0.158156 0.028269
vt 0.164261 0.043008
vt 0.157258 0.157258
vt 0.080294 0.080294
vt 0.091575 0.091575
vt 0.128827 0.199808
vt 0.028269 0.158156
vt 0.043008 0.164261
vt 0.118843 0.250000
vt 0.010000 0.250000
vt 0.025954 0.250000
vt 0.128827 0.300192
vt 0.028269 0.341844
vt 0.043008 0.335739
vt 0.157258 0.342742
vt 0.080294 0.419706
vt 0.091575 0.408425
vt 0.199808 0.371173
vt 0.158156 0.471731
vt 0.164261 0.456992
vt 0.317248 0.462620
vt 0.341844 0.471731
vt 0.250000 0.490000
vt 0.269238 0.472170
vt 0.158156 0.471731
s 1
f 1/1/1 2/2/1 4/3/2 3/4/2
f 3/4/2 4/3/2 6/5/3 5/6/3
f 5/6/3 6/5/3 8/7/4 7/8/4
f 7/8/4 8/7/4 10/9/5 9/10/5
f 9/10/5 10/9/5 12/11/6 11/12/6
f 11/12/6 12/11/6 14/13/7 13/14/7
f 13/14/7 14/13/7 16/15/8 15/16/8
f 15/16/8 16/15/8 18/17/9 17/18/9
f 17/18/9 18/17/9 20/19/10 19/20/10
f 19/20/10 20/19/10 22/21/11 21/22/11
f 21/22/11 22/21/11 24/23/12 23/24/12
f 23/24/12 24/23/12 26/25/13 25/26/13
f 25/26/13 26/25/13 28/27/14 27/28/14
f 27/28/14 28/27/14 30/29/15 29/30/15
f 18/17/16 16/15/16 40/15/16 41/17/16
f 29/30/15 30/29/15 32/31/17 31/32/17
f 31/32/17 32/31/17 2/33/1 1/34/1
f 1/35/18 3/36/18 5/37/18 7/38/18 9/39/18 11/40/18 13/41/18 15/42/18 17/43/18 19/44/18 21/45/18 23/46/18 25/47/18 27/48/18 29/49/18 31/50/18
f 46/27/14 45/25/13 61/25/13 62/27/14
f 4/3/16 2/2/16 33/2/16 34/3/16
f 28/27/16 26/25/16 45/25/16 46/27/16
f 14/13/16 12/11/16 38/11/16 39/13/16
f 24/23/16 22/21/16 43/21/16 44/23/16
f 2/33/16 32/31/16 48/31/16 33/33/16
f 10/9/16 8/7/16 36/7/16 37/9/16
f 20/19/16 18/17/16 41/17/16 42/19/16
f 30/29/16 28/27/16 46/27/16 47/29/16
f 6/5/16 4/3/16 34/3/16 35/5/16
f 16/15/16 14/13/16 39/13/16 40/15/16
f 26/25/16 24/23/16 44/23/16 45/25/16
f 12/11/16 10/9/16 37/9/16 38/11/16
f 22/21/16 20/19/16 42/19/16 43/21/16
f 32/31/16 30/29/16 47/29/16 48/31/16
f 8/7/16 6/5/16 35/5/16 36/7/16
f 60/23/16 59/21/16 75/21/16 76/23/16
f 39/13/7 38/11/6 54/11/6 55/13/7
f 47/29/15 46/27/14 62/27/14 63/29/15
f 40/15/8 39/13/7 55/13/7 56/15/8
f 48/31/17 47/29/15 63/29/15 64/31/17
f 41/17/9 40/15/8 56/15/8 57/17/9
f 34/3/2 33/2/1 49/2/1 50/3/2
f 33/33/1 48/31/17 64/31/17 49/33/1
f 42/19/10 41/17/9 57/17/9 58/19/10
f 35/5/3 34/3/2 50/3/2 51/5/3
f 43/21/11 42/19/10 58/19/10 59/21/11
f 36/7/4 35/5/3 51/5/3 52/7/4
f 44/23/12 43/21/11 59/21/11 60/23/12
f 37/9/5 36/7/4 52/7/4 53/9/5
f 45/25/13 44/23/12 60/23/12 61/25/13
f 38/11/6 37/9/5 53/9/5 54/11/6
f 104/51/19 96/52/20 93/53/21 100/54/22
f 53/9/16 52/7/16 68/7/16 69/9/16
f 61/25/16 60/23/16 76/23/16 77/25/16
f 54/11/16 53/9/16 69/9/16 70/11/16
f 62/27/16 61/25/16 77/25/16 78/27/16
f 55/13/16 54/11/16 70/11/16 71/13/16
f 63/29/16 62/27/16 78/27/16 79/29/16
f 56/15/16 55/13/16 71/13/16 72/15/16
f 64/31/16 63/29/16 79/29/16 80/31/16
f 57/17/16 56/15/16 72/15/16 73/17/16
f 50/3/16 49/2/16 65/2/16 66/3/16
f 49/33/16 64/31/16 80/31/16 65/33/16
f 58/19/16 57/17/16 73/17/16 74/19/16
f 51/5/16 50/3/16 66/3/16 67/5/16
f 59/21/16 58/19/16 74/19/16 75/21/16
f 52/7/16 51/5/16 67/5/16 68/7/16
f 66/3/2 65/2/1 81/2/23 91/55/24
f 131/56/25 125/57/26 177/58/16
f 152/59/27 144/60/28 141/61/29 148/62/30
f 110/63/31 102/64/32 99/65/33 106/66/34
f 158/67/35 150/68/36 147/69/37 154/70/38
f 116/71/39 108/72/40 105/73/41 112/74/42
f 164/75/43 156/76/44 153/77/45 160/78/46
f 122/79/47 114/80/48 111/81/49 118/82/50
f 170/83/51 162/84/52 159/85/53 166/86/54
f 128/87/55 120/88/56 117/89/57 124/90/58
f 176/91/59 168/92/60 165/93/61 172/94/62
f 134/95/63 126/96/64 123/97/65 130/98/66
f 140/99/67 132/100/68 129/101/69 136/102/70
f 146/103/71 138/104/72 135/105/73 142/106/74
f 82/107/75 174/108/76 171/109/77 84/110/78
f 67/5/3 66/3/2 91/3/24 97/111/79
f 68/7/4 67/5/3 97/5/79 103/7/80
f 69/9/5 68/7/4 103/7/80 109/9/81
f 70/11/6 69/9/5 109/9/81 115/112/82
f 71/13/7 70/11/6 115/11/82 121/13/83
f 72/15/8 71/13/7 121/13/83 127/15/84
f 73/17/9 72/15/8 127/15/84 133/17/85
f 74/19/10 73/17/9 133/17/85 139/113/86
f 75/21/11 74/19/10 139/19/86 145/21/87
f 76/23/12 75/21/11 145/21/87 151/23/88
f 77/25/13 76/23/12 151/23/88 157/25/89
f 78/27/14 77/25/13 157/25/89 163/27/90
f 79/29/15 78/27/14 163/27/90 169/29/91
f 80/31/17 79/29/15 169/29/91 175/31/92
f 65/33/1 80/31/17 175/31/92 81/33/23
f 98/114/93 90/115/94 87/116/95 94/117/96
f 81/118/23 82/107/75 83/119/97
f 84/110/78 85/120/98 86/121/99
f 87/116/95 88/122/100 89/123/101
f 90/115/94 91/124/24 92/125/102
f 93/53/21 94/117/96 95/126/103
f 96/52/20 97/127/79 98/128/93
f 99/65/33 100/54/22 101/129/104
f 102/64/32 103/130/80 104/131/19
f 105/73/41 106/66/34 107/132/105
f 108/72/40 109/133/81 110/134/31
f 111/81/49 112/74/42 113/135/106
f 114/80/48 115/136/82 116/137/39
f 117/89/57 118/82/50 119/138/107
f 120/88/56 121/139/83 122/140/47
f 123/97/65 124/90/58 125/57/26
f 126/96/64 127/141/84 128/142/55
f 129/101/69 130/98/66 131/56/25
f 132/100/68 133/143/85 134/144/63
f 135/105/73 136/102/70 137/145/108
f 138/104/72 139/146/86 140/147/67
f 141/61/29 142/106/74 143/148/109
f 144/60/28 145/149/87 146/150/71
f 147/69/37 148/62/30 149/151/110
f 150/68/36 151/152/88 152/153/27
f 153/77/45 154/70/38 155/154/111
f 156/76/44 157/155/89 158/156/35
f 159/85/53 160/78/46 161/157/112
f 162/84/52 163/158/90 164/159/43
f 165/93/61 166/86/54 167/160/113
f 168/92/60 169/161/91 170/162/51
f 171/109/77 172/94/62 173/163/114
f 174/108/76 175/164/92 176/165/59
f 87/116/95 90/115/94 92/166/102 88/122/100
f 91/167/24 81/168/23 83/169/97 92/166/102
f 82/107/75 84/110/78 86/121/99 83/169/97
f 85/120/98 89/123/101 88/122/100 86/121/99
f 93/53/21 96/52/20 98/114/93 94/117/96
f 97/127/79 91/124/24 90/115/94 98/114/93
f 89/123/101 95/126/103 94/117/96 87/116/95
f 99/65/33 102/64/32 104/51/19 100/54/22
f 103/130/80 97/127/79 96/52/20 104/51/19
f 95/126/103 101/129/104 100/54/22 93/53/21
f 105/73/41 108/72/40 110/63/31 106/66/34
f 109/133/81 103/130/80 102/64/32 110/63/31
f 101/129/104 107/132/105 106/66/34 99/65/33
f 111/81/49 114/80/48 116/71/39 112/74/42
f 115/136/82 109/133/81 108/72/40 116/71/39
f 107/132/105 113/135/106 112/74/42 105/73/41
f 117/89/57 120/88/56 122/79/47 118/82/50
f 121/139/83 115/136/82 114/80/48 122/79/47
f 113/135/106 119/138/107 118/82/50 111/81/49
f 123/97/65 126/96/64 128/87/55 124/90/58
f 127/141/84 121/139/83 120/88/56 128/87/55
f 119/138/107 125/57/26 124/90/58 117/89/57
f 129/101/69 132/100/68 134/95/63 130/98/66
f 133/143/85 127/141/84 126/96/64 134/95/63
f 125/57/26 131/56/25 130/98/66 123/97/65
f 135/105/73 138/104/72 140/99/67 136/102/70
f 139/146/86 133/143/85 132/100/68 140/99/67
f 131/56/25 137/145/108 136/102/70 129/101/69
f 141/61/29 144/60/28 146/103/71 142/106/74
f 145/149/87 139/146/86 138/104/72 146/103/71
f 137/145/108 143/148/109 142/106/74 135/105/73
f 147/69/37 150/68/36 152/59/27 148/62/30
f 151/152/88 145/149/87 144/60/28 152/59/27
f 143/148/109 149/151/110 148/62/30 141/61/29
f 153/77/45 156/76/44 158/67/35 154/70/38
f 157/155/89 151/152/88 150/68/36 158/67/35
f 149/151/110 155/154/111 154/70/38 147/69/37
f 159/85/53 162/84/52 164/75/43 160/78/46
f 163/158/90 157/155/89 156/76/44 164/75/43
f 155/154/111 161/157/112 160/78/46 153/77/45
f 165/93/61 168/92/60 170/83/51 166/86/54
f 169/161/91 163/158/90 162/84/52 170/83/51
f 161/157/112 167/160/113 166/86/54 159/85/53
f 171/109/77 174/108/76 176/91/59 172/94/62
f 175/170/92 169/161/91 168/92/60 176/91/59
f 167/160/113 173/163/114 172/94/62 165/93/61
f 81/118/23 175/164/92 174/108/76 82/107/75
f 173/163/114 85/120/98 84/110/78 171/109/77
f 92/166/102 83/169/97 86/121/99 88/122/100
f 125/57/26 119/138/107 177/58/16
f 119/138/107 113/135/106 177/58/16
f 113/135/106 107/132/105 177/58/16
f 107/132/105 101/129/104 177/58/16
f 101/129/104 95/126/103 177/58/16
f 95/126/103 89/123/101 177/58/16
f 89/123/101 85/120/98 177/58/16
f 85/120/98 173/163/114 177/58/16
f 173/163/114 167/160/113 177/58/16
f 167/160/113 161/157/112 177/58/16
f 161/157/112 155/154/111 177/58/16
f 155/154/111 149/151/110 177/58/16
f 149/151/110 143/148/109 177/58/16
f 131/56/25 177/58/16 137/145/108
f 143/148/109 137/145/108 177/58/16
