# Blender 4.1.1
# www.blender.org
o Cylinder.002
v 0.000000 0.100000 -0.199758
v 0.000000 0.600000 -0.149516
v 0.038971 0.100000 -0.195920
v 0.076444 0.100000 -0.184552
v 0.110980 0.100000 -0.166093
v 0.141250 0.100000 -0.141250
v 0.105724 0.600000 -0.105724
v 0.166093 0.100000 -0.110980
v 0.184552 0.100000 -0.076444
v 0.195920 0.100000 -0.038971
v 0.199758 0.100000 -0.000000
v 0.149516 0.600000 -0.000000
v 0.195920 0.100000 0.038971
v 0.184552 0.100000 0.076444
v 0.166093 0.100000 0.110980
v 0.141250 0.100000 0.141250
v 0.105724 0.600000 0.105724
v 0.110980 0.100000 0.166093
v 0.076444 0.100000 0.184552
v 0.038971 0.100000 0.195920
v 0.000000 0.100000 0.199758
v 0.000000 0.600000 0.149516
v -0.038971 0.100000 0.195920
v -0.076444 0.100000 0.184552
v -0.110980 0.100000 0.166093
v -0.141250 0.100000 0.141250
v -0.105724 0.600000 0.105724
v -0.166093 0.100000 0.110980
v -0.184552 0.100000 0.076444
v -0.195920 0.100000 0.038971
v -0.199758 0.100000 -0.000000
v -0.149516 0.600000 -0.000000
v -0.195920 0.100000 -0.038971
v -0.184552 0.100000 -0.076444
v -0.166093 0.100000 -0.110980
v -0.141250 0.100000 -0.141250
v -0.105724 0.600000 -0.105724
v -0.110980 0.100000 -0.166093
v -0.076444 0.100000 -0.184552
v -0.038971 0.100000 -0.195920
v 0.000000 0.100000 -0.250000
v 0.048773 0.100000 -0.245196
v 0.095671 0.100000 -0.230970
v 0.138893 0.100000 -0.207867
v 0.176777 0.100000 -0.176777
v 0.207867 0.100000 -0.138893
v 0.230970 0.100000 -0.095671
v 0.245196 0.100000 -0.048773
v 0.250000 0.100000 -0.000000
v 0.245196 0.100000 0.048773
v 0.230970 0.100000 0.095671
v 0.207867 0.100000 0.138893
v 0.176777 0.100000 0.176777
v 0.138893 0.100000 0.207867
v 0.095671 0.100000 0.230970
v 0.048773 0.100000 0.245196
v 0.000000 0.100000 0.250000
v -0.048773 0.100000 0.245196
v -0.095671 0.100000 0.230970
v -0.138893 0.100000 0.207867
v -0.176777 0.100000 0.176777
v -0.207867 0.100000 0.138893
v -0.230970 0.100000 0.095671
v -0.245196 0.100000 0.048773
v -0.250000 0.100000 -0.000000
v -0.245196 0.100000 -0.048773
v -0.230970 0.100000 -0.095671
v -0.207867 0.100000 -0.138893
v -0.176777 0.100000 -0.176777
v -0.138893 0.100000 -0.207867
v -0.095671 0.100000 -0.230970
v -0.048773 0.100000 -0.245196
v -0.000000 0.000000 -0.149516
v 0.029169 0.000000 -0.146643
v 0.057217 0.000000 -0.138135
v 0.083067 0.000000 -0.124318
v 0.105724 0.000000 -0.105724
v 0.124318 0.000000 -0.083067
v 0.138135 0.000000 -0.057217
v 0.146643 0.000000 -0.029169
v 0.149516 0.000000 -0.000000
v 0.146643 0.000000 0.029169
v 0.138135 0.000000 0.057217
v 0.124318 0.000000 0.083067
v 0.105724 0.000000 0.105724
v 0.083067 0.000000 0.124318
v 0.057217 0.000000 0.138135
v 0.029169 0.000000 0.146643
v -0.000000 0.000000 0.149516
v -0.029169 0.000000 0.146643
v -0.057217 0.000000 0.138135
v -0.083067 0.000000 0.124318
v -0.105724 0.000000 0.105724
v -0.124318 0.000000 0.083067
v -0.138135 0.000000 0.057217
v -0.146643 0.000000 0.029169
v -0.149516 0.000000 -0.000000
v -0.146643 0.000000 -0.029169
v -0.138135 0.000000 -0.057217
v -0.124318 0.000000 -0.083067
v -0.105724 0.000000 -0.105724
v -0.083067 0.000000 -0.124318
v -0.057217 0.000000 -0.138135
v -0.029169 0.000000 -0.146643
v 0.048773 0.600000 -0.245196
v 0.000000 0.600000 -0.250000
v 0.095671 0.600000 -0.230970
v 0.138893 0.600000 -0.207867
v 0.176777 0.600000 -0.176777
v 0.207867 0.600000 -0.138893
v 0.230970 0.600000 -0.095671
v 0.245196 0.600000 -0.048773
v 0.250000 0.600000 -0.000000
v 0.245196 0.600000 0.048773
v 0.230970 0.600000 0.095671
v 0.207867 0.600000 0.138893
v 0.176777 0.600000 0.176777
v 0.138893 0.600000 0.207867
v 0.095671 0.600000 0.230970
v 0.048773 0.600000 0.245196
v 0.000000 0.600000 0.250000
v -0.048773 0.600000 0.245196
v -0.095671 0.600000 0.230970
v -0.138893 0.600000 0.207867
v -0.176777 0.600000 0.176777
v -0.207867 0.600000 0.138893
v -0.230970 0.600000 0.095671
v -0.245196 0.600000 0.048773
v -0.250000 0.600000 -0.000000
v -0.245196 0.600000 -0.048773
v -0.230970 0.600000 -0.095671
v -0.207867 0.600000 -0.138893
v -0.176777 0.600000 -0.176777
v -0.138893 0.600000 -0.207867
v -0.095671 0.600000 -0.230970
v -0.048773 0.600000 -0.245196
v 0.000000 0.700000 0.149516
v 0.105724 0.700000 0.105724
v -0.105724 0.700000 0.105724
v -0.105724 0.700000 -0.105724
v -0.149516 0.700000 -0.000000
v 0.105724 0.700000 -0.105724
v 0.000000 0.700000 -0.149516
v 0.149516 0.700000 -0.000000
v -0.000000 0.000000 -0.199758
v 0.038971 0.000000 -0.195920
v 0.076444 0.000000 -0.184552
v 0.110980 0.000000 -0.166093
v 0.141250 0.000000 -0.141250
v 0.166093 0.000000 -0.110980
v 0.184552 0.000000 -0.076444
v 0.195920 0.000000 -0.038971
v 0.199758 0.000000 -0.000000
v 0.195920 0.000000 0.038971
v 0.184552 0.000000 0.076444
v 0.166093 0.000000 0.110980
v 0.141250 0.000000 0.141250
v 0.110980 0.000000 0.166093
v 0.076444 0.000000 0.184552
v 0.038971 0.000000 0.195920
v -0.000000 0.000000 0.199758
v -0.038971 0.000000 0.195920
v -0.076444 0.000000 0.184552
v -0.110980 0.000000 0.166093
v -0.141250 0.000000 0.141250
v -0.166093 0.000000 0.110980
v -0.184552 0.000000 0.076444
v -0.195920 0.000000 0.038971
v -0.199758 0.000000 -0.000000
v -0.195920 0.000000 -0.038971
v -0.184552 0.000000 -0.076444
v -0.166093 0.000000 -0.110980
v -0.141250 0.000000 -0.141250
v -0.110980 0.000000 -0.166093
v -0.076444 0.000000 -0.184552
v -0.038971 0.000000 -0.195920
v 0.000000 0.100000 -0.149516
v 0.029169 0.100000 -0.146643
v 0.057217 0.100000 -0.138135
v 0.083067 0.100000 -0.124318
v 0.105724 0.100000 -0.105724
v 0.124318 0.100000 -0.083067
v 0.138135 0.100000 -0.057217
v 0.146643 0.100000 -0.029169
v 0.149516 0.100000 -0.000000
v 0.146643 0.100000 0.029169
v 0.138135 0.100000 0.057217
v 0.124318 0.100000 0.083067
v 0.105724 0.100000 0.105724
v 0.083067 0.100000 0.124318
v 0.057217 0.100000 0.138135
v 0.029169 0.100000 0.146643
v 0.000000 0.100000 0.149516
v -0.029169 0.100000 0.146643
v -0.057217 0.100000 0.138135
v -0.083067 0.100000 0.124318
v -0.105724 0.100000 0.105724
v -0.124318 0.100000 0.083067
v -0.138135 0.100000 0.057217
v -0.146643 0.100000 0.029169
v -0.149516 0.100000 -0.000000
v -0.146643 0.100000 -0.029169
v -0.138135 0.100000 -0.057217
v -0.124318 0.100000 -0.083067
v -0.105724 0.100000 -0.105724
v -0.083067 0.100000 -0.124318
v -0.057217 0.100000 -0.138135
v -0.029169 0.100000 -0.146643
vn -0.0000 -0.0000 -1.0000
vn 0.1951 -0.0000 -0.9808
vn 0.3827 -0.0000 -0.9239
vn 0.5556 -0.0000 -0.8315
vn 0.7071 -0.0000 -0.7071
vn 0.8315 -0.0000 -0.5556
vn 0.9239 -0.0000 -0.3827
vn 0.9808 -0.0000 -0.1951
vn 1.0000 -0.0000 -0.0000
vn 0.9808 -0.0000 0.1951
vn 0.9239 -0.0000 0.3827
vn 0.8315 -0.0000 0.5556
vn 0.7071 -0.0000 0.7071
vn 0.5556 -0.0000 0.8315
vn 0.3827 -0.0000 0.9239
vn 0.1951 -0.0000 0.9808
vn -0.0000 -0.0000 1.0000
vn -0.1951 -0.0000 0.9808
vn -0.3827 -0.0000 0.9239
vn -0.5556 -0.0000 0.8315
vn -0.7071 -0.0000 0.7071
vn -0.8315 -0.0000 0.5556
vn -0.9239 -0.0000 0.3827
vn -0.9808 -0.0000 0.1951
vn -1.0000 -0.0000 -0.0000
vn -0.9808 -0.0000 -0.1951
vn -0.9239 -0.0000 -0.3827
vn -0.8315 -0.0000 -0.5556
vn -0.7071 -0.0000 -0.7071
vn -0.5556 -0.0000 -0.8315
vn -0.3827 -0.0000 -0.9239
vn -0.1951 -0.0000 -0.9808
vn -0.0000 -1.0000 -0.0000
vn -0.0000 1.0000 -0.0000
vt 1.000000 0.500000
vt 1.000000 1.000000
vt 0.968750 1.000000
vt 0.968750 0.500000
vt 0.937500 1.000000
vt 0.937500 0.500000
vt 0.906250 1.000000
vt 0.906250 0.500000
vt 0.875000 1.000000
vt 0.875000 0.500000
vt 0.843750 1.000000
vt 0.843750 0.500000
vt 0.812500 1.000000
vt 0.812500 0.500000
vt 0.781250 1.000000
vt 0.781250 0.500000
vt 0.750000 1.000000
vt 0.750000 0.500000
vt 0.718750 1.000000
vt 0.718750 0.500000
vt 0.687500 1.000000
vt 0.687500 0.500000
vt 0.656250 1.000000
vt 0.656250 0.500000
vt 0.625000 1.000000
vt 0.625000 0.500000
vt 0.593750 1.000000
vt 0.593750 0.500000
vt 0.562500 1.000000
vt 0.562500 0.500000
vt 0.531250 1.000000
vt 0.531250 0.500000
vt 0.500000 1.000000
vt 0.500000 0.500000
vt 0.468750 1.000000
vt 0.468750 0.500000
vt 0.437500 1.000000
vt 0.437500 0.500000
vt 0.406250 1.000000
vt 0.406250 0.500000
vt 0.375000 1.000000
vt 0.375000 0.500000
vt 0.343750 1.000000
vt 0.343750 0.500000
vt 0.312500 1.000000
vt 0.312500 0.500000
vt 0.281250 1.000000
vt 0.281250 0.500000
vt 0.250000 1.000000
vt 0.250000 0.500000
vt 0.218750 1.000000
vt 0.218750 0.500000
vt 0.187500 1.000000
vt 0.187500 0.500000
vt 0.156250 1.000000
vt 0.156250 0.500000
vt 0.125000 1.000000
vt 0.125000 0.500000
vt 0.093750 1.000000
vt 0.093750 0.500000
vt 0.062500 1.000000
vt 0.062500 0.500000
vt 0.031250 1.000000
vt 0.031250 0.500000
vt 0.000000 1.000000
vt 0.000000 0.500000
vt 0.712588 0.438083
vt 0.750000 0.441768
vt 0.787412 0.438083
vt 0.750000 0.490000
vt 0.796822 0.485388
vt 0.823386 0.427170
vt 0.841844 0.471731
vt 0.856541 0.409449
vt 0.883337 0.449553
vt 0.885600 0.385600
vt 0.919706 0.419706
vt 0.909449 0.356541
vt 0.949553 0.383337
vt 0.927170 0.323386
vt 0.971731 0.341844
vt 0.938083 0.287412
vt 0.985388 0.296822
vt 0.941768 0.250000
vt 0.990000 0.250000
vt 0.938083 0.212588
vt 0.985388 0.203178
vt 0.927170 0.176614
vt 0.971731 0.158156
vt 0.909449 0.143460
vt 0.949553 0.116663
vt 0.885600 0.114400
vt 0.919706 0.080294
vt 0.856541 0.090551
vt 0.883337 0.050447
vt 0.823386 0.072830
vt 0.841844 0.028269
vt 0.787412 0.061917
vt 0.796822 0.014612
vt 0.750000 0.058232
vt 0.750000 0.010000
vt 0.712588 0.061917
vt 0.703178 0.014612
vt 0.676614 0.072830
vt 0.658156 0.028269
vt 0.643460 0.090551
vt 0.616663 0.050447
vt 0.614400 0.114400
vt 0.580294 0.080294
vt 0.590551 0.143460
vt 0.550447 0.116663
vt 0.572830 0.176614
vt 0.528269 0.158156
vt 0.561917 0.212588
vt 0.514612 0.203178
vt 0.558232 0.250000
vt 0.510000 0.250000
vt 0.561917 0.287412
vt 0.514612 0.296822
vt 0.572830 0.323386
vt 0.528269 0.341844
vt 0.590551 0.356540
vt 0.550447 0.383337
vt 0.614400 0.385600
vt 0.580294 0.419706
vt 0.643460 0.409449
vt 0.616663 0.449553
vt 0.676614 0.427170
vt 0.658156 0.471731
vt 0.703178 0.485388
vt 0.882610 0.304929
vt 0.890777 0.278002
vt 0.000000 0.000000
vt 0.778002 0.390777
vt 0.750000 0.393535
vt 0.804929 0.382610
vt 0.829744 0.369346
vt 0.851495 0.351495
vt 0.869345 0.329744
vt 0.893535 0.250000
vt 0.890777 0.221998
vt 0.882609 0.195071
vt 0.869345 0.170256
vt 0.851495 0.148505
vt 0.829744 0.130655
vt 0.804929 0.117390
vt 0.778002 0.109222
vt 0.750000 0.106465
vt 0.721998 0.109222
vt 0.695071 0.117391
vt 0.670256 0.130655
vt 0.648505 0.148505
vt 0.630654 0.170256
vt 0.617391 0.195071
vt 0.609223 0.221998
vt 0.606464 0.250000
vt 0.609222 0.278002
vt 0.617390 0.304929
vt 0.630655 0.329744
vt 0.648505 0.351495
vt 0.670256 0.369345
vt 0.695071 0.382609
vt 0.721998 0.390777
s 1
f 41/1/1 106/2/1 105/3/2 42/4/2
f 42/4/2 105/3/2 107/5/3 43/6/3
f 43/6/3 107/5/3 108/7/4 44/8/4
f 44/8/4 108/7/4 109/9/5 45/10/5
f 45/10/5 109/9/5 110/11/6 46/12/6
f 46/12/6 110/11/6 111/13/7 47/14/7
f 47/14/7 111/13/7 112/15/8 48/16/8
f 48/16/8 112/15/8 113/17/9 49/18/9
f 49/18/9 113/17/9 114/19/10 50/20/10
f 50/20/10 114/19/10 115/21/11 51/22/11
f 51/22/11 115/21/11 116/23/12 52/24/12
f 52/24/12 116/23/12 117/25/13 53/26/13
f 53/26/13 117/25/13 118/27/14 54/28/14
f 54/28/14 118/27/14 119/29/15 55/30/15
f 55/30/15 119/29/15 120/31/16 56/32/16
f 56/32/16 120/31/16 121/33/17 57/34/17
f 57/34/17 121/33/17 122/35/18 58/36/18
f 58/36/18 122/35/18 123/37/19 59/38/19
f 59/38/19 123/37/19 124/39/20 60/40/20
f 60/40/20 124/39/20 125/41/21 61/42/21
f 61/42/21 125/41/21 126/43/22 62/44/22
f 62/44/22 126/43/22 127/45/23 63/46/23
f 63/46/23 127/45/23 128/47/24 64/48/24
f 64/48/24 128/47/24 129/49/25 65/50/25
f 65/50/25 129/49/25 130/51/26 66/52/26
f 66/52/26 130/51/26 131/53/27 67/54/27
f 67/54/27 131/53/27 132/55/28 68/56/28
f 68/56/28 132/55/28 133/57/29 69/58/29
f 69/58/29 133/57/29 134/59/30 70/60/30
f 70/60/30 134/59/30 135/61/31 71/62/31
f 71/62/31 135/61/31 136/63/32 72/64/32
f 72/64/32 136/63/32 106/65/1 41/66/1
f 40/67/32 1/68/1 145/68/1 176/67/32
f 3/69/33 1/68/33 41/70/33 42/71/33
f 4/72/33 3/69/33 42/71/33 43/73/33
f 5/74/33 4/72/33 43/73/33 44/75/33
f 6/76/33 5/74/33 44/75/33 45/77/33
f 8/78/33 6/76/33 45/77/33 46/79/33
f 9/80/33 8/78/33 46/79/33 47/81/33
f 10/82/33 9/80/33 47/81/33 48/83/33
f 11/84/33 10/82/33 48/83/33 49/85/33
f 13/86/33 11/84/33 49/85/33 50/87/33
f 14/88/33 13/86/33 50/87/33 51/89/33
f 15/90/33 14/88/33 51/89/33 52/91/33
f 16/92/33 15/90/33 52/91/33 53/93/33
f 18/94/33 16/92/33 53/93/33 54/95/33
f 19/96/33 18/94/33 54/95/33 55/97/33
f 20/98/33 19/96/33 55/97/33 56/99/33
f 21/100/33 20/98/33 56/99/33 57/101/33
f 23/102/33 21/100/33 57/101/33 58/103/33
f 24/104/33 23/102/33 58/103/33 59/105/33
f 25/106/33 24/104/33 59/105/33 60/107/33
f 26/108/33 25/106/33 60/107/33 61/109/33
f 28/110/33 26/108/33 61/109/33 62/111/33
f 29/112/33 28/110/33 62/111/33 63/113/33
f 30/114/33 29/112/33 63/113/33 64/115/33
f 31/116/33 30/114/33 64/115/33 65/117/33
f 33/118/33 31/116/33 65/117/33 66/119/33
f 34/120/33 33/118/33 66/119/33 67/121/33
f 35/122/33 34/120/33 67/121/33 68/123/33
f 36/124/33 35/122/33 68/123/33 69/125/33
f 38/126/33 36/124/33 69/125/33 70/127/33
f 39/128/33 38/126/33 70/127/33 71/129/33
f 40/67/33 39/128/33 71/129/33 72/130/33
f 1/68/33 40/67/33 72/130/33 41/70/33
f 79/131/23 80/132/24 184/132/24 183/131/23
f 24/104/19 25/106/20 164/106/20 163/104/19
f 8/78/6 9/80/7 151/80/7 150/78/6
f 25/106/20 26/108/21 165/108/21 164/106/20
f 9/80/7 10/82/8 152/82/8 151/80/7
f 26/108/21 28/110/22 166/110/22 165/108/21
f 10/82/8 11/84/9 153/84/9 152/82/8
f 28/110/22 29/112/23 167/112/23 166/110/22
f 11/84/9 13/86/10 154/86/10 153/84/9
f 29/112/23 30/114/24 168/114/24 167/112/23
f 13/86/10 14/88/11 155/88/11 154/86/10
f 30/114/24 31/116/25 169/116/25 168/114/24
f 14/88/11 15/90/12 156/90/12 155/88/11
f 31/116/25 33/118/26 170/118/26 169/116/25
f 15/90/12 16/92/13 157/92/13 156/90/12
f 33/118/26 34/120/27 171/120/27 170/118/26
f 16/92/13 18/94/14 158/94/14 157/92/13
f 34/120/27 35/122/28 172/122/28 171/120/27
f 18/94/14 19/96/15 159/96/15 158/94/14
f 1/68/1 3/69/2 146/69/2 145/68/1
f 35/122/28 36/124/29 173/124/29 172/122/28
f 19/96/15 20/98/16 160/98/16 159/96/15
f 3/69/2 4/72/3 147/72/3 146/69/2
f 36/124/29 38/126/30 174/126/30 173/124/29
f 20/98/16 21/100/17 161/100/17 160/98/16
f 4/72/3 5/74/4 148/74/4 147/72/3
f 38/126/30 39/128/31 175/128/31 174/126/30
f 21/100/17 23/102/18 162/102/18 161/100/17
f 5/74/4 6/76/5 149/76/5 148/74/4
f 39/128/31 40/67/32 176/67/32 175/128/31
f 23/102/18 24/104/19 163/104/19 162/102/18
f 6/76/5 8/78/6 150/78/6 149/76/5
f 32/133/34 127/45/34 27/133/34
f 125/41/34 27/133/34 127/45/34 126/43/34
f 128/47/34 127/45/34 32/133/34 129/49/34
f 37/133/34 131/53/34 32/133/34
f 129/49/34 32/133/34 131/53/34 130/51/34
f 132/55/34 131/53/34 37/133/34 133/57/34
f 37/133/34 2/133/34 135/61/34
f 133/57/34 37/133/34 135/61/34 134/59/34
f 135/61/34 2/133/34 106/2/34 136/63/34
f 7/133/34 107/5/34 2/133/34
f 108/7/34 107/5/34 7/133/34 109/9/34
f 106/2/34 2/133/34 107/5/34 105/3/34
f 12/133/34 111/13/34 7/133/34
f 112/15/34 111/13/34 12/133/34 113/17/34
f 109/9/34 7/133/34 111/13/34 110/11/34
f 17/133/34 115/21/34 12/133/34
f 116/23/34 115/21/34 17/133/34 117/25/34
f 113/17/34 12/133/34 115/21/34 114/19/34
f 22/133/34 119/29/34 17/133/34
f 117/25/34 17/133/34 119/29/34 118/27/34
f 120/31/34 119/29/34 22/133/34 121/33/34
f 27/133/34 123/37/34 22/133/34
f 121/33/34 22/133/34 123/37/34 122/35/34
f 124/39/34 123/37/34 27/133/34 125/41/34
f 37/133/29 32/133/25 141/133/25 140/133/29
f 144/133/34 142/133/34 143/133/34 140/133/34 141/133/34 139/133/34 137/133/34 138/133/34
f 12/133/9 7/133/5 142/133/5 144/133/9
f 22/133/17 17/133/13 138/133/13 137/133/17
f 32/133/25 27/133/21 139/133/21 141/133/25
f 17/133/13 12/133/9 144/133/9 138/133/13
f 7/133/5 2/133/1 143/133/1 142/133/5
f 27/133/21 22/133/17 137/133/17 139/133/21
f 2/133/1 37/133/29 140/133/29 143/133/1
f 74/134/33 73/135/33 145/68/33 146/69/33
f 75/136/33 74/134/33 146/69/33 147/72/33
f 76/137/33 75/136/33 147/72/33 148/74/33
f 77/138/33 76/137/33 148/74/33 149/76/33
f 78/139/33 77/138/33 149/76/33 150/78/33
f 79/131/33 78/139/33 150/78/33 151/80/33
f 80/132/33 79/131/33 151/80/33 152/82/33
f 81/140/33 80/132/33 152/82/33 153/84/33
f 82/141/33 81/140/33 153/84/33 154/86/33
f 83/142/33 82/141/33 154/86/33 155/88/33
f 84/143/33 83/142/33 155/88/33 156/90/33
f 85/144/33 84/143/33 156/90/33 157/92/33
f 86/145/33 85/144/33 157/92/33 158/94/33
f 87/146/33 86/145/33 158/94/33 159/96/33
f 88/147/33 87/146/33 159/96/33 160/98/33
f 89/148/33 88/147/33 160/98/33 161/100/33
f 90/149/33 89/148/33 161/100/33 162/102/33
f 91/150/33 90/149/33 162/102/33 163/104/33
f 92/151/33 91/150/33 163/104/33 164/106/33
f 93/152/33 92/151/33 164/106/33 165/108/33
f 94/153/33 93/152/33 165/108/33 166/110/33
f 95/154/33 94/153/33 166/110/33 167/112/33
f 96/155/33 95/154/33 167/112/33 168/114/33
f 97/156/33 96/155/33 168/114/33 169/116/33
f 98/157/33 97/156/33 169/116/33 170/118/33
f 99/158/33 98/157/33 170/118/33 171/120/33
f 100/159/33 99/158/33 171/120/33 172/122/33
f 101/160/33 100/159/33 172/122/33 173/124/33
f 102/161/33 101/160/33 173/124/33 174/126/33
f 103/162/33 102/161/33 174/126/33 175/128/33
f 104/163/33 103/162/33 175/128/33 176/67/33
f 73/135/33 104/163/33 176/67/33 145/68/33
f 177/135/33 178/134/33 179/136/33 180/137/33 181/138/33 182/139/33 183/131/33 184/132/33 185/140/33 186/141/33 187/142/33 188/143/33 189/144/33 190/145/33 191/146/33 192/147/33 193/148/33 194/149/33 195/150/33 196/151/33 197/152/33 198/153/33 199/154/33 200/155/33 201/156/33 202/157/33 203/158/33 204/159/33 205/160/33 206/161/33 207/162/33 208/163/33
f 93/152/5 94/153/6 198/153/6 197/152/5
f 80/132/24 81/140/25 185/140/25 184/132/24
f 94/153/6 95/154/7 199/154/7 198/153/6
f 81/140/25 82/141/26 186/141/26 185/140/25
f 95/154/7 96/155/8 200/155/8 199/154/7
f 82/141/26 83/142/27 187/142/27 186/141/26
f 96/155/8 97/156/9 201/156/9 200/155/8
f 83/142/27 84/143/28 188/143/28 187/142/27
f 97/156/9 98/157/10 202/157/10 201/156/9
f 84/143/28 85/144/29 189/144/29 188/143/28
f 98/157/10 99/158/11 203/158/11 202/157/10
f 85/144/29 86/145/30 190/145/30 189/144/29
f 99/158/11 100/159/12 204/159/12 203/158/11
f 86/145/30 87/146/31 191/146/31 190/145/30
f 73/135/17 74/134/18 178/134/18 177/135/17
f 100/159/12 101/160/13 205/160/13 204/159/12
f 87/146/31 88/147/32 192/147/32 191/146/31
f 74/134/18 75/136/19 179/136/19 178/134/18
f 101/160/13 102/161/14 206/161/14 205/160/13
f 88/147/32 89/148/1 193/148/1 192/147/32
f 75/136/19 76/137/20 180/137/20 179/136/19
f 102/161/14 103/162/15 207/162/15 206/161/14
f 89/148/1 90/149/2 194/149/2 193/148/1
f 76/137/20 77/138/21 181/138/21 180/137/20
f 103/162/15 104/163/16 208/163/16 207/162/15
f 90/149/2 91/150/3 195/150/3 194/149/2
f 77/138/21 78/139/22 182/139/22 181/138/21
f 104/163/16 73/135/17 177/135/17 208/163/16
f 91/150/3 92/151/4 196/151/4 195/150/3
f 78/139/22 79/131/23 183/131/23 182/139/22
f 92/151/4 93/152/5 197/152/5 196/151/4
