# Blender 4.1.1
# www.blender.org
o Cylinder.003
v 0.000000 0.100000 -0.199758
v 0.038971 0.100000 -0.195920
v 0.076444 0.100000 -0.184552
v 0.110980 0.100000 -0.166093
v 0.141250 0.100000 -0.141250
v 0.166093 0.100000 -0.110980
v 0.184552 0.100000 -0.076444
v 0.195920 0.100000 -0.038971
v 0.199758 0.100000 -0.000000
v 0.195920 0.100000 0.038971
v 0.184552 0.100000 0.076444
v 0.166093 0.100000 0.110980
v 0.141250 0.100000 0.141250
v 0.110980 0.100000 0.166093
v 0.076444 0.100000 0.184552
v 0.038971 0.100000 0.195920
v 0.000000 0.100000 0.199758
v -0.038971 0.100000 0.195920
v -0.076444 0.100000 0.184552
v -0.110980 0.100000 0.166093
v -0.141250 0.100000 0.141250
v -0.166093 0.100000 0.110980
v -0.184552 0.100000 0.076444
v -0.195920 0.100000 0.038971
v -0.199758 0.100000 -0.000000
v -0.195920 0.100000 -0.038971
v -0.184552 0.100000 -0.076444
v -0.166093 0.100000 -0.110980
v -0.141250 0.100000 -0.141250
v -0.110980 0.100000 -0.166093
v -0.076444 0.100000 -0.184552
v -0.038971 0.100000 -0.195920
v 0.000000 0.100000 -0.200000
v 0.043898 0.100000 -0.220689
v 0.100730 0.100000 -0.243183
v 0.159727 0.100000 -0.239048
v 0.212618 0.100000 -0.212618
v 0.239048 0.100000 -0.159727
v 0.243183 0.100000 -0.100730
v 0.220689 0.100000 -0.043898
v 0.200000 0.100000 -0.000000
v 0.220689 0.100000 0.043898
v 0.243183 0.100000 0.100730
v 0.239048 0.100000 0.159727
v 0.212618 0.100000 0.212618
v 0.159727 0.100000 0.239048
v 0.100730 0.100000 0.243183
v 0.043898 0.100000 0.220689
v 0.000000 0.100000 0.200000
v -0.043898 0.100000 0.220689
v -0.100730 0.100000 0.243183
v -0.159727 0.100000 0.239048
v -0.212618 0.100000 0.212618
v -0.239048 0.100000 0.159727
v -0.243183 0.100000 0.100730
v -0.220689 0.100000 0.043898
v -0.200000 0.100000 -0.000000
v -0.220689 0.100000 -0.043898
v -0.243183 0.100000 -0.100730
v -0.239048 0.100000 -0.159727
v -0.212618 0.100000 -0.212618
v -0.159727 0.100000 -0.239048
v -0.100730 0.100000 -0.243183
v -0.043898 0.100000 -0.220689
v -0.000000 0.000000 -0.149516
v 0.029169 0.000000 -0.146643
v 0.057217 0.000000 -0.138135
v 0.083067 0.000000 -0.124318
v 0.105724 0.000000 -0.105724
v 0.124318 0.000000 -0.083067
v 0.138135 0.000000 -0.057217
v 0.146643 0.000000 -0.029169
v 0.149516 0.000000 -0.000000
v 0.146643 0.000000 0.029169
v 0.138135 0.000000 0.057217
v 0.124318 0.000000 0.083067
v 0.105724 0.000000 0.105724
v 0.083067 0.000000 0.124318
v 0.057217 0.000000 0.138135
v 0.029169 0.000000 0.146643
v -0.000000 0.000000 0.149516
v -0.029169 0.000000 0.146643
v -0.057217 0.000000 0.138135
v -0.083067 0.000000 0.124318
v -0.105724 0.000000 0.105724
v -0.124318 0.000000 0.083067
v -0.138135 0.000000 0.057217
v -0.146643 0.000000 0.029169
v -0.149516 0.000000 -0.000000
v -0.146643 0.000000 -0.029169
v -0.138135 0.000000 -0.057217
v -0.124318 0.000000 -0.083067
v -0.105724 0.000000 -0.105724
v -0.083067 0.000000 -0.124318
v -0.057217 0.000000 -0.138135
v -0.029169 0.000000 -0.146643
v 0.036579 0.200000 -0.183897
v 0.000000 0.200000 -0.187500
v 0.071753 0.200000 -0.173227
v 0.104169 0.200000 -0.155901
v 0.132583 0.200000 -0.132583
v 0.155901 0.200000 -0.104169
v 0.173227 0.200000 -0.071753
v 0.183897 0.200000 -0.036579
v 0.187500 0.200000 -0.000000
v 0.183897 0.200000 0.036579
v 0.173227 0.200000 0.071753
v 0.155901 0.200000 0.104169
v 0.132583 0.200000 0.132583
v 0.104169 0.200000 0.155901
v 0.071753 0.200000 0.173227
v 0.036579 0.200000 0.183897
v 0.000000 0.200000 0.187500
v -0.036579 0.200000 0.183897
v -0.071753 0.200000 0.173227
v -0.104169 0.200000 0.155901
v -0.132583 0.200000 0.132583
v -0.155901 0.200000 0.104169
v -0.173227 0.200000 0.071753
v -0.183897 0.200000 0.036579
v -0.187500 0.200000 -0.000000
v -0.183897 0.200000 -0.036579
v -0.173227 0.200000 -0.071753
v -0.155901 0.200000 -0.104169
v -0.132583 0.200000 -0.132583
v -0.104169 0.200000 -0.155901
v -0.071753 0.200000 -0.173227
v -0.036579 0.200000 -0.183897
v 0.000000 0.325724 0.000000
v -0.000000 0.000000 -0.199758
v 0.038971 0.000000 -0.195920
v 0.076444 0.000000 -0.184552
v 0.110980 0.000000 -0.166093
v 0.141250 0.000000 -0.141250
v 0.166093 0.000000 -0.110980
v 0.184552 0.000000 -0.076444
v 0.195920 0.000000 -0.038971
v 0.199758 0.000000 -0.000000
v 0.195920 0.000000 0.038971
v 0.184552 0.000000 0.076444
v 0.166093 0.000000 0.110980
v 0.141250 0.000000 0.141250
v 0.110980 0.000000 0.166093
v 0.076444 0.000000 0.184552
v 0.038971 0.000000 0.195920
v -0.000000 0.000000 0.199758
v -0.038971 0.000000 0.195920
v -0.076444 0.000000 0.184552
v -0.110980 0.000000 0.166093
v -0.141250 0.000000 0.141250
v -0.166093 0.000000 0.110980
v -0.184552 0.000000 0.076444
v -0.195920 0.000000 0.038971
v -0.199758 0.000000 -0.000000
v -0.195920 0.000000 -0.038971
v -0.184552 0.000000 -0.076444
v -0.166093 0.000000 -0.110980
v -0.141250 0.000000 -0.141250
v -0.110980 0.000000 -0.166093
v -0.076444 0.000000 -0.184552
v -0.038971 0.000000 -0.195920
v 0.000000 0.100000 -0.149516
v 0.029169 0.100000 -0.146643
v 0.057217 0.100000 -0.138135
v 0.083067 0.100000 -0.124318
v 0.105724 0.100000 -0.105724
v 0.124318 0.100000 -0.083067
v 0.138135 0.100000 -0.057217
v 0.146643 0.100000 -0.029169
v 0.149516 0.100000 -0.000000
v 0.146643 0.100000 0.029169
v 0.138135 0.100000 0.057217
v 0.124318 0.100000 0.083067
v 0.105724 0.100000 0.105724
v 0.083067 0.100000 0.124318
v 0.057217 0.100000 0.138135
v 0.029169 0.100000 0.146643
v 0.000000 0.100000 0.149516
v -0.029169 0.100000 0.146643
v -0.057217 0.100000 0.138135
v -0.083067 0.100000 0.124318
v -0.105724 0.100000 0.105724
v -0.124318 0.100000 0.083067
v -0.138135 0.100000 0.057217
v -0.146643 0.100000 0.029169
v -0.149516 0.100000 -0.000000
v -0.146643 0.100000 -0.029169
v -0.138135 0.100000 -0.057217
v -0.124318 0.100000 -0.083067
v -0.105724 0.100000 -0.105724
v -0.083067 0.100000 -0.124318
v -0.057217 0.100000 -0.138135
v -0.029169 0.100000 -0.146643
v -0.000280 0.249874 -0.154749
v 0.000000 0.299208 -0.091353
v 0.064597 0.299208 -0.064597
v 0.109226 0.249874 -0.109622
v 0.154749 0.249874 -0.000280
v 0.091353 0.299208 -0.000000
v 0.109622 0.249874 0.109226
v 0.064597 0.299208 0.064597
v 0.000000 0.299208 0.091353
v 0.000280 0.249874 0.154749
v -0.064597 0.299208 0.064597
v -0.109226 0.249874 0.109622
v -0.154749 0.249874 0.000280
v -0.091353 0.299208 -0.000000
v -0.064597 0.299208 -0.064597
v -0.109622 0.249874 -0.109226
v 0.000000 0.200000 -0.200000
v 0.043898 0.200000 -0.220689
v 0.100730 0.200000 -0.243183
v 0.159727 0.200000 -0.239048
v 0.212618 0.200000 -0.212618
v 0.239048 0.200000 -0.159727
v 0.243183 0.200000 -0.100730
v 0.220689 0.200000 -0.043898
v 0.200000 0.200000 -0.000000
v 0.220689 0.200000 0.043898
v 0.243183 0.200000 0.100730
v 0.239048 0.200000 0.159727
v 0.212618 0.200000 0.212618
v 0.159727 0.200000 0.239048
v 0.100730 0.200000 0.243183
v 0.043898 0.200000 0.220689
v 0.000000 0.200000 0.200000
v -0.043898 0.200000 0.220689
v -0.100730 0.200000 0.243183
v -0.159727 0.200000 0.239048
v -0.212618 0.200000 0.212618
v -0.239048 0.200000 0.159727
v -0.243183 0.200000 0.100730
v -0.220689 0.200000 0.043898
v -0.200000 0.200000 -0.000000
v -0.220689 0.200000 -0.043898
v -0.243183 0.200000 -0.100730
v -0.239048 0.200000 -0.159727
v -0.212618 0.200000 -0.212618
v -0.159727 0.200000 -0.239048
v -0.100730 0.200000 -0.243183
v -0.043898 0.200000 -0.220689
vn -0.0000 1.0000 -0.0000
vn -0.1951 -0.0000 -0.9808
vn -0.0000 -0.0000 -1.0000
vn -0.0000 -1.0000 -0.0000
vn -0.9239 -0.0000 0.3827
vn -0.9808 -0.0000 0.1951
vn -0.3827 -0.0000 0.9239
vn -0.5556 -0.0000 0.8315
vn 0.8315 -0.0000 -0.5556
vn 0.9239 -0.0000 -0.3827
vn -0.7071 -0.0000 0.7071
vn 0.9808 -0.0000 -0.1951
vn -0.8315 -0.0000 0.5556
vn 1.0000 -0.0000 -0.0000
vn 0.9808 -0.0000 0.1951
vn 0.9239 -0.0000 0.3827
vn -1.0000 -0.0000 -0.0000
vn 0.8315 -0.0000 0.5556
vn -0.9808 -0.0000 -0.1951
vn 0.7071 -0.0000 0.7071
vn -0.9239 -0.0000 -0.3827
vn 0.5556 -0.0000 0.8315
vn -0.8315 -0.0000 -0.5556
vn 0.3827 -0.0000 0.9239
vn 0.1951 -0.0000 -0.9808
vn -0.7071 -0.0000 -0.7071
vn 0.1951 -0.0000 0.9808
vn 0.3827 -0.0000 -0.9239
vn -0.5556 -0.0000 -0.8315
vn -0.0000 -0.0000 1.0000
vn 0.5556 -0.0000 -0.8315
vn -0.3827 -0.0000 -0.9239
vn -0.1951 -0.0000 0.9808
vn 0.7071 -0.0000 -0.7071
vn -0.3465 0.8716 0.3467
vn -0.4901 0.8716 0.0001
vn -0.7978 0.5817 0.1587
vn -0.7192 0.6274 0.2984
vn -0.7088 0.7054 0.0013
vn -0.8076 0.5898 -0.0004
vn -0.3467 0.8716 -0.3465
vn -0.7196 0.6274 -0.2976
vn -0.7969 0.5829 -0.1585
vn -0.6763 0.5817 -0.4519
vn -0.5021 0.7054 -0.5003
vn -0.5707 0.5898 -0.5713
vn -0.2984 0.6274 -0.7192
vn -0.4514 0.5829 -0.6756
vn 0.0004 0.5898 -0.8076
vn -0.0013 0.7054 -0.7088
vn 0.2976 0.6274 -0.7196
vn 0.1585 0.5829 -0.7969
vn -0.1587 0.5817 -0.7978
vn 0.5713 0.5898 -0.5707
vn 0.5003 0.7054 -0.5021
vn 0.7192 0.6274 -0.2984
vn 0.6756 0.5829 -0.4514
vn -0.0001 0.8716 -0.4901
vn 0.3465 0.8716 -0.3467
vn 0.4901 0.8716 -0.0001
vn 0.5021 0.7054 0.5003
vn 0.7196 0.6274 0.2976
vn 0.7088 0.7054 -0.0013
vn 0.3467 0.8716 0.3465
vn 0.5707 0.5898 0.5713
vn 0.2984 0.6274 0.7192
vn 0.4514 0.5829 0.6756
vn 0.6763 0.5817 0.4519
vn 0.1587 0.5817 0.7978
vn 0.0013 0.7054 0.7088
vn -0.0004 0.5898 0.8076
vn 0.0001 0.8716 0.4901
vn -0.2976 0.6274 0.7196
vn -0.1585 0.5829 0.7969
vn -0.4519 0.5817 0.6763
vn -0.5003 0.7054 0.5021
vn -0.5713 0.5898 0.5707
vn 0.7978 0.5817 -0.1587
vn 0.8076 0.5898 0.0004
vn 0.7969 0.5829 0.1585
vn -0.6756 0.5829 0.4514
vn 0.4519 0.5817 -0.6763
vn 0.3974 -0.0000 -0.9177
vn 0.4263 -0.0000 -0.9046
vn 0.1529 -0.0000 -0.9882
vn -0.2636 -0.0000 -0.9646
vn -0.9646 -0.0000 -0.2636
vn -0.9882 -0.0000 0.1529
vn -0.9177 -0.0000 0.3974
vn -0.9046 -0.0000 0.4263
vn -0.9177 -0.0000 -0.3974
vn -0.9046 -0.0000 -0.4263
vn -0.9882 -0.0000 -0.1529
vn -0.9646 -0.0000 0.2636
vn -0.2636 -0.0000 0.9646
vn 0.1529 -0.0000 0.9882
vn 0.3974 -0.0000 0.9177
vn 0.4263 -0.0000 0.9046
vn -0.3974 -0.0000 0.9177
vn -0.4263 -0.0000 0.9046
vn -0.1529 -0.0000 0.9882
vn 0.2636 -0.0000 0.9646
vn 0.9646 -0.0000 0.2636
vn 0.9882 -0.0000 -0.1529
vn 0.9177 -0.0000 -0.3974
vn 0.9046 -0.0000 -0.4263
vn 0.9177 -0.0000 0.3974
vn 0.9046 -0.0000 0.4263
vn 0.9882 -0.0000 0.1529
vn 0.9646 -0.0000 -0.2636
vn 0.2636 -0.0000 -0.9646
vn -0.1529 -0.0000 -0.9882
vn -0.3974 -0.0000 -0.9177
vn -0.4263 -0.0000 -0.9046
vt 1.000000 0.750000
vt 1.000000 1.000000
vt 0.968750 1.000000
vt 0.968750 0.750000
vt 0.937500 1.000000
vt 0.937500 0.750000
vt 0.906250 1.000000
vt 0.906250 0.750000
vt 0.875000 1.000000
vt 0.875000 0.750000
vt 0.843750 1.000000
vt 0.843750 0.750000
vt 0.812500 1.000000
vt 0.812500 0.750000
vt 0.781250 1.000000
vt 0.781250 0.750000
vt 0.750000 1.000000
vt 0.750000 0.750000
vt 0.718750 1.000000
vt 0.718750 0.750000
vt 0.687500 1.000000
vt 0.687500 0.750000
vt 0.656250 1.000000
vt 0.656250 0.750000
vt 0.625000 1.000000
vt 0.625000 0.750000
vt 0.593750 1.000000
vt 0.593750 0.750000
vt 0.562500 1.000000
vt 0.562500 0.750000
vt 0.531250 1.000000
vt 0.531250 0.750000
vt 0.500000 1.000000
vt 0.500000 0.750000
vt 0.468750 1.000000
vt 0.468750 0.750000
vt 0.437500 1.000000
vt 0.437500 0.750000
vt 0.406250 1.000000
vt 0.406250 0.750000
vt 0.375000 1.000000
vt 0.375000 0.750000
vt 0.343750 1.000000
vt 0.343750 0.750000
vt 0.312500 1.000000
vt 0.312500 0.750000
vt 0.281250 1.000000
vt 0.281250 0.750000
vt 0.250000 1.000000
vt 0.250000 0.750000
vt 0.218750 1.000000
vt 0.218750 0.750000
vt 0.187500 1.000000
vt 0.187500 0.750000
vt 0.156250 1.000000
vt 0.156250 0.750000
vt 0.125000 1.000000
vt 0.125000 0.750000
vt 0.093750 1.000000
vt 0.093750 0.750000
vt 0.062500 1.000000
vt 0.062500 0.750000
vt 0.031250 1.000000
vt 0.031250 0.750000
vt 0.000000 1.000000
vt 0.000000 0.750000
vt 0.712588 0.438083
vt 0.750000 0.441768
vt 0.787412 0.438083
vt 0.750000 0.490000
vt 0.796822 0.485388
vt 0.823386 0.427170
vt 0.841844 0.471731
vt 0.856541 0.409449
vt 0.883337 0.449553
vt 0.885600 0.385600
vt 0.919706 0.419706
vt 0.909449 0.356541
vt 0.949553 0.383337
vt 0.927170 0.323386
vt 0.971731 0.341844
vt 0.938083 0.287412
vt 0.985388 0.296822
vt 0.941768 0.250000
vt 0.990000 0.250000
vt 0.938083 0.212588
vt 0.985388 0.203178
vt 0.927170 0.176614
vt 0.971731 0.158156
vt 0.909449 0.143460
vt 0.949553 0.116663
vt 0.885600 0.114400
vt 0.919706 0.080294
vt 0.856541 0.090551
vt 0.883337 0.050447
vt 0.823386 0.072830
vt 0.841844 0.028269
vt 0.787412 0.061917
vt 0.796822 0.014612
vt 0.750000 0.058232
vt 0.750000 0.010000
vt 0.712588 0.061917
vt 0.703178 0.014612
vt 0.676614 0.072830
vt 0.658156 0.028269
vt 0.643460 0.090551
vt 0.616663 0.050447
vt 0.614400 0.114400
vt 0.580294 0.080294
vt 0.590551 0.143460
vt 0.550447 0.116663
vt 0.572830 0.176614
vt 0.528269 0.158156
vt 0.561917 0.212588
vt 0.514612 0.203178
vt 0.558232 0.250000
vt 0.510000 0.250000
vt 0.561917 0.287412
vt 0.514612 0.296822
vt 0.572830 0.323386
vt 0.528269 0.341844
vt 0.590551 0.356540
vt 0.550447 0.383337
vt 0.614400 0.385600
vt 0.580294 0.419706
vt 0.643460 0.409449
vt 0.616663 0.449553
vt 0.676614 0.427170
vt 0.658156 0.471731
vt 0.703178 0.485388
vt 0.882610 0.304929
vt 0.890777 0.278002
vt 0.000000 0.000000
vt 0.085994 0.343434
vt 0.085960 0.342662
vt 0.043064 0.343434
vt 0.043128 0.342662
vt 0.342957 0.342662
vt 0.018955 0.303274
vt 0.019050 0.304806
vt 0.341137 0.343434
vt 0.300124 0.342662
vt 0.209554 0.304806
vt 0.208501 0.303274
vt 0.247655 0.304806
vt 0.246410 0.303274
vt 0.214459 0.342662
vt 0.214781 0.343434
vt 0.171852 0.343434
vt 0.171626 0.342662
vt 0.128923 0.343434
vt 0.095252 0.304806
vt 0.094773 0.303274
vt 0.778002 0.390777
vt 0.750000 0.393535
vt 0.804929 0.382610
vt 0.829744 0.369346
vt 0.851495 0.351495
vt 0.869345 0.329744
vt 0.893535 0.250000
vt 0.890777 0.221998
vt 0.882609 0.195071
vt 0.869345 0.170256
vt 0.851495 0.148505
vt 0.829744 0.130655
vt 0.804929 0.117390
vt 0.778002 0.109222
vt 0.750000 0.106465
vt 0.721998 0.109222
vt 0.695071 0.117391
vt 0.670256 0.130655
vt 0.648505 0.148505
vt 0.630654 0.170256
vt 0.617391 0.195071
vt 0.609223 0.221998
vt 0.606464 0.250000
vt 0.609222 0.278002
vt 0.617390 0.304929
vt 0.630655 0.329744
vt 0.648505 0.351495
vt 0.670256 0.369345
vt 0.695071 0.382609
vt 0.721998 0.390777
vt 0.285756 0.304806
vt 0.284319 0.303274
vt 0.257710 0.343434
vt 0.257291 0.342662
vt 0.171453 0.304806
vt 0.170592 0.303274
vt 0.133353 0.304806
vt 0.132682 0.303274
vt 0.128793 0.342662
vt 0.057151 0.304806
vt 0.056864 0.303274
vt 0.300640 0.343434
vt 0.031250 0.500000
vt 0.000000 0.500000
vt 0.062500 0.500000
vt 0.093750 0.500000
vt 0.125000 0.500000
vt 0.156250 0.500000
vt 0.187500 0.500000
vt 0.218750 0.500000
vt 0.250000 0.500000
vt 0.281250 0.500000
vt 0.312500 0.500000
vt 0.343750 0.500000
vt 0.375000 0.500000
vt 0.406250 0.500000
vt 0.437500 0.500000
vt 0.468750 0.500000
vt 0.500000 0.500000
vt 0.531250 0.500000
vt 0.562500 0.500000
vt 0.593750 0.500000
vt 0.625000 0.500000
vt 0.656250 0.500000
vt 0.687500 0.500000
vt 0.718750 0.500000
vt 0.750000 0.500000
vt 0.781250 0.500000
vt 0.812500 0.500000
vt 0.843750 0.500000
vt 0.875000 0.500000
vt 0.906250 0.500000
vt 0.937500 0.500000
vt 0.968750 0.500000
vt 1.000000 0.500000
s 1
f 210/1/1 98/2/1 97/3/1 211/4/1
f 211/4/1 97/3/1 99/5/1 212/6/1
f 212/6/1 99/5/1 100/7/1 213/8/1
f 213/8/1 100/7/1 101/9/1 214/10/1
f 214/10/1 101/9/1 102/11/1 215/12/1
f 215/12/1 102/11/1 103/13/1 216/14/1
f 216/14/1 103/13/1 104/15/1 217/16/1
f 217/16/1 104/15/1 105/17/1 218/18/1
f 218/18/1 105/17/1 106/19/1 219/20/1
f 219/20/1 106/19/1 107/21/1 220/22/1
f 220/22/1 107/21/1 108/23/1 221/24/1
f 221/24/1 108/23/1 109/25/1 222/26/1
f 222/26/1 109/25/1 110/27/1 223/28/1
f 223/28/1 110/27/1 111/29/1 224/30/1
f 224/30/1 111/29/1 112/31/1 225/32/1
f 225/32/1 112/31/1 113/33/1 226/34/1
f 226/34/1 113/33/1 114/35/1 227/36/1
f 227/36/1 114/35/1 115/37/1 228/38/1
f 228/38/1 115/37/1 116/39/1 229/40/1
f 229/40/1 116/39/1 117/41/1 230/42/1
f 230/42/1 117/41/1 118/43/1 231/44/1
f 231/44/1 118/43/1 119/45/1 232/46/1
f 232/46/1 119/45/1 120/47/1 233/48/1
f 233/48/1 120/47/1 121/49/1 234/50/1
f 234/50/1 121/49/1 122/51/1 235/52/1
f 235/52/1 122/51/1 123/53/1 236/54/1
f 236/54/1 123/53/1 124/55/1 237/56/1
f 237/56/1 124/55/1 125/57/1 238/58/1
f 238/58/1 125/57/1 126/59/1 239/60/1
f 239/60/1 126/59/1 127/61/1 240/62/1
f 240/62/1 127/61/1 128/63/1 241/64/1
f 241/64/1 128/63/1 98/65/1 210/66/1
f 32/67/2 1/68/3 130/68/3 161/67/2
f 2/69/4 1/68/4 33/70/4 34/71/4
f 3/72/4 2/69/4 34/71/4 35/73/4
f 4/74/4 3/72/4 35/73/4 36/75/4
f 5/76/4 4/74/4 36/75/4 37/77/4
f 6/78/4 5/76/4 37/77/4 38/79/4
f 7/80/4 6/78/4 38/79/4 39/81/4
f 8/82/4 7/80/4 39/81/4 40/83/4
f 9/84/4 8/82/4 40/83/4 41/85/4
f 10/86/4 9/84/4 41/85/4 42/87/4
f 11/88/4 10/86/4 42/87/4 43/89/4
f 12/90/4 11/88/4 43/89/4 44/91/4
f 13/92/4 12/90/4 44/91/4 45/93/4
f 14/94/4 13/92/4 45/93/4 46/95/4
f 15/96/4 14/94/4 46/95/4 47/97/4
f 16/98/4 15/96/4 47/97/4 48/99/4
f 17/100/4 16/98/4 48/99/4 49/101/4
f 18/102/4 17/100/4 49/101/4 50/103/4
f 19/104/4 18/102/4 50/103/4 51/105/4
f 20/106/4 19/104/4 51/105/4 52/107/4
f 21/108/4 20/106/4 52/107/4 53/109/4
f 22/110/4 21/108/4 53/109/4 54/111/4
f 23/112/4 22/110/4 54/111/4 55/113/4
f 24/114/4 23/112/4 55/113/4 56/115/4
f 25/116/4 24/114/4 56/115/4 57/117/4
f 26/118/4 25/116/4 57/117/4 58/119/4
f 27/120/4 26/118/4 58/119/4 59/121/4
f 28/122/4 27/120/4 59/121/4 60/123/4
f 29/124/4 28/122/4 60/123/4 61/125/4
f 30/126/4 29/124/4 61/125/4 62/127/4
f 31/128/4 30/126/4 62/127/4 63/129/4
f 32/67/4 31/128/4 63/129/4 64/130/4
f 1/68/4 32/67/4 64/130/4 33/70/4
f 71/131/5 72/132/6 169/132/6 168/131/5
f 19/104/7 20/106/8 149/106/8 148/104/7
f 6/78/9 7/80/10 136/80/10 135/78/9
f 20/106/8 21/108/11 150/108/11 149/106/8
f 7/80/10 8/82/12 137/82/12 136/80/10
f 21/108/11 22/110/13 151/110/13 150/108/11
f 8/82/12 9/84/14 138/84/14 137/82/12
f 22/110/13 23/112/5 152/112/5 151/110/13
f 9/84/14 10/86/15 139/86/15 138/84/14
f 23/112/5 24/114/6 153/114/6 152/112/5
f 10/86/15 11/88/16 140/88/16 139/86/15
f 24/114/6 25/116/17 154/116/17 153/114/6
f 11/88/16 12/90/18 141/90/18 140/88/16
f 25/116/17 26/118/19 155/118/19 154/116/17
f 12/90/18 13/92/20 142/92/20 141/90/18
f 26/118/19 27/120/21 156/120/21 155/118/19
f 13/92/20 14/94/22 143/94/22 142/92/20
f 27/120/21 28/122/23 157/122/23 156/120/21
f 14/94/22 15/96/24 144/96/24 143/94/22
f 1/68/3 2/69/25 131/69/25 130/68/3
f 28/122/23 29/124/26 158/124/26 157/122/23
f 15/96/24 16/98/27 145/98/27 144/96/24
f 2/69/25 3/72/28 132/72/28 131/69/25
f 29/124/26 30/126/29 159/126/29 158/124/26
f 16/98/27 17/100/30 146/100/30 145/98/27
f 3/72/28 4/74/31 133/74/31 132/72/28
f 30/126/29 31/128/32 160/128/32 159/126/29
f 17/100/30 18/102/33 147/102/33 146/100/30
f 4/74/31 5/76/34 134/76/34 133/74/31
f 31/128/32 32/67/2 161/67/2 160/128/32
f 18/102/33 19/104/7 148/104/7 147/102/33
f 5/76/34 6/78/9 135/78/9 134/76/34
f 204/133/35 129/133/1 207/133/36
f 120/47/37 119/45/38 206/134/39 121/49/40
f 207/133/36 129/133/1 208/133/41
f 121/49/40 206/135/39 123/53/42 122/51/43
f 124/55/44 123/53/42 209/136/45 125/57/46
f 125/57/46 209/137/45 127/61/47 126/59/48
f 98/2/49 194/138/50 99/5/51 97/3/52
f 209/139/45 194/140/50 127/61/47
f 127/61/47 194/141/50 98/2/49 128/63/53
f 101/9/54 197/142/55 103/13/56 102/11/57
f 208/133/41 129/133/1 195/133/58
f 196/133/59 129/133/1 199/133/60
f 200/143/61 107/21/62 198/144/63
f 198/145/63 103/13/56 197/146/55
f 199/133/60 129/133/1 201/133/64
f 109/25/65 200/147/61 111/29/66 110/27/67
f 108/23/68 107/21/62 200/148/61 109/25/65
f 112/31/69 111/29/66 203/149/70 113/33/71
f 202/133/72 201/133/64 129/133/1
f 113/33/71 203/150/70 115/37/73 114/35/74
f 116/39/75 115/37/73 205/151/76 117/41/77
f 202/133/72 129/133/1 204/133/35
f 206/152/39 119/45/38 205/153/76
f 66/154/4 65/155/4 130/68/4 131/69/4
f 67/156/4 66/154/4 131/69/4 132/72/4
f 68/157/4 67/156/4 132/72/4 133/74/4
f 69/158/4 68/157/4 133/74/4 134/76/4
f 70/159/4 69/158/4 134/76/4 135/78/4
f 71/131/4 70/159/4 135/78/4 136/80/4
f 72/132/4 71/131/4 136/80/4 137/82/4
f 73/160/4 72/132/4 137/82/4 138/84/4
f 74/161/4 73/160/4 138/84/4 139/86/4
f 75/162/4 74/161/4 139/86/4 140/88/4
f 76/163/4 75/162/4 140/88/4 141/90/4
f 77/164/4 76/163/4 141/90/4 142/92/4
f 78/165/4 77/164/4 142/92/4 143/94/4
f 79/166/4 78/165/4 143/94/4 144/96/4
f 80/167/4 79/166/4 144/96/4 145/98/4
f 81/168/4 80/167/4 145/98/4 146/100/4
f 82/169/4 81/168/4 146/100/4 147/102/4
f 83/170/4 82/169/4 147/102/4 148/104/4
f 84/171/4 83/170/4 148/104/4 149/106/4
f 85/172/4 84/171/4 149/106/4 150/108/4
f 86/173/4 85/172/4 150/108/4 151/110/4
f 87/174/4 86/173/4 151/110/4 152/112/4
f 88/175/4 87/174/4 152/112/4 153/114/4
f 89/176/4 88/175/4 153/114/4 154/116/4
f 90/177/4 89/176/4 154/116/4 155/118/4
f 91/178/4 90/177/4 155/118/4 156/120/4
f 92/179/4 91/178/4 156/120/4 157/122/4
f 93/180/4 92/179/4 157/122/4 158/124/4
f 94/181/4 93/180/4 158/124/4 159/126/4
f 95/182/4 94/181/4 159/126/4 160/128/4
f 96/183/4 95/182/4 160/128/4 161/67/4
f 65/155/4 96/183/4 161/67/4 130/68/4
f 162/155/4 163/154/4 164/156/4 165/157/4 166/158/4 167/159/4 168/131/4 169/132/4 170/160/4 171/161/4 172/162/4 173/163/4 174/164/4 175/165/4 176/166/4 177/167/4 178/168/4 179/169/4 180/170/4 181/171/4 182/172/4 183/173/4 184/174/4 185/175/4 186/176/4 187/177/4 188/178/4 189/179/4 190/180/4 191/181/4 192/182/4 193/183/4
f 85/172/34 86/173/9 183/173/9 182/172/34
f 72/132/6 73/160/17 170/160/17 169/132/6
f 86/173/9 87/174/10 184/174/10 183/173/9
f 73/160/17 74/161/19 171/161/19 170/160/17
f 87/174/10 88/175/12 185/175/12 184/174/10
f 74/161/19 75/162/21 172/162/21 171/161/19
f 88/175/12 89/176/14 186/176/14 185/175/12
f 75/162/21 76/163/23 173/163/23 172/162/21
f 89/176/14 90/177/15 187/177/15 186/176/14
f 76/163/23 77/164/26 174/164/26 173/163/23
f 90/177/15 91/178/16 188/178/16 187/177/15
f 77/164/26 78/165/29 175/165/29 174/164/26
f 91/178/16 92/179/18 189/179/18 188/178/16
f 78/165/29 79/166/32 176/166/32 175/165/29
f 65/155/30 66/154/33 163/154/33 162/155/30
f 92/179/18 93/180/20 190/180/20 189/179/18
f 79/166/32 80/167/2 177/167/2 176/166/32
f 66/154/33 67/156/7 164/156/7 163/154/33
f 93/180/20 94/181/22 191/181/22 190/180/20
f 80/167/2 81/168/3 178/168/3 177/167/2
f 67/156/7 68/157/8 165/157/8 164/156/7
f 94/181/22 95/182/24 192/182/24 191/181/22
f 81/168/3 82/169/25 179/169/25 178/168/3
f 68/157/8 69/158/11 166/158/11 165/157/8
f 95/182/24 96/183/27 193/183/27 192/182/24
f 82/169/25 83/170/28 180/170/28 179/169/25
f 69/158/11 70/159/13 167/159/13 166/158/11
f 96/183/27 65/155/30 162/155/30 193/183/27
f 83/170/28 84/171/31 181/171/31 180/170/28
f 70/159/13 71/131/5 168/131/5 167/159/13
f 84/171/31 85/172/34 182/172/34 181/171/31
f 197/184/55 99/5/51 194/185/50
f 104/15/78 103/13/56 198/186/63 105/17/79
f 105/17/79 198/187/63 107/21/62 106/19/80
f 203/188/70 111/29/66 200/189/61
f 205/190/76 115/37/73 203/191/70
f 117/41/77 205/192/76 119/45/38 118/43/81
f 209/193/45 123/53/42 206/194/39
f 100/7/82 99/5/51 197/195/55 101/9/54
f 203/188/70 200/189/61 201/133/64 202/133/72
f 205/190/76 203/191/70 202/133/72 204/133/35
f 209/193/45 206/194/39 207/133/36 208/133/41
f 197/184/55 194/185/50 195/133/58 196/133/59
f 200/143/61 198/144/63 199/133/60 201/133/64
f 206/152/39 205/153/76 204/133/35 207/133/36
f 194/140/50 209/139/45 208/133/41 195/133/58
f 198/145/63 197/146/55 196/133/59 199/133/60
f 195/133/58 129/133/1 196/133/59
f 64/196/83 241/64/83 210/66/84 33/197/84
f 63/198/85 240/62/85 241/64/83 64/196/83
f 62/199/86 239/60/86 240/62/85 63/198/85
f 61/200/26 238/58/26 239/60/86 62/199/86
f 60/201/87 237/56/87 238/58/26 61/200/26
f 59/202/88 236/54/88 237/56/87 60/201/87
f 58/203/89 235/52/89 236/54/88 59/202/88
f 57/204/90 234/50/90 235/52/89 58/203/89
f 56/205/91 233/48/91 234/50/92 57/204/92
f 55/206/93 232/46/93 233/48/91 56/205/91
f 54/207/94 231/44/94 232/46/93 55/206/93
f 53/208/11 230/42/11 231/44/94 54/207/94
f 52/209/95 229/40/95 230/42/11 53/208/11
f 51/210/96 228/38/96 229/40/95 52/209/95
f 50/211/97 227/36/97 228/38/96 51/210/96
f 49/212/98 226/34/98 227/36/97 50/211/97
f 48/213/99 225/32/99 226/34/100 49/212/100
f 47/214/101 224/30/101 225/32/99 48/213/99
f 46/215/102 223/28/102 224/30/101 47/214/101
f 45/216/20 222/26/20 223/28/102 46/215/102
f 44/217/103 221/24/103 222/26/20 45/216/20
f 43/218/104 220/22/104 221/24/103 44/217/103
f 42/219/105 219/20/105 220/22/104 43/218/104
f 41/220/106 218/18/106 219/20/105 42/219/105
f 40/221/107 217/16/107 218/18/108 41/220/108
f 39/222/109 216/14/109 217/16/107 40/221/107
f 38/223/110 215/12/110 216/14/109 39/222/109
f 37/224/34 214/10/34 215/12/110 38/223/110
f 36/225/111 213/8/111 214/10/34 37/224/34
f 35/226/112 212/6/112 213/8/111 36/225/111
f 34/227/113 211/4/113 212/6/112 35/226/112
f 33/228/114 210/1/114 211/4/113 34/227/113
