# Blender 4.2.0
# www.blender.org
o Cube
v -4.000000 5.000000 -9.000000
v -4.000000 0.000000 -9.000000
v -4.000000 5.000000 6.000000
v -4.000000 0.000000 6.000000
v -9.000000 5.000000 -9.000000
v -9.000000 0.000000 -9.000000
v -9.000000 5.000000 6.000000
v -9.000000 0.000000 6.000000
v -9.000000 0.000000 9.000000
v -9.000000 5.000000 9.000000
v -4.000000 5.000000 9.000000
v -4.000000 0.000000 9.000000
v 9.000000 5.000000 -9.000000
v 9.000000 0.000000 -9.000000
v 9.000000 5.000000 6.000000
v 9.000000 0.000000 6.000000
vn -1.0000 -0.0000 -0.0000
vn -0.0000 -0.0000 1.0000
vn -0.0000 -0.0000 -1.0000
vn 1.0000 -0.0000 -0.0000
vt 0.916642 0.000037
vt 0.916642 0.138905
vt 0.500037 0.138906
vt 0.500037 0.000037
vt 0.222301 0.277923
vt 0.222301 0.139055
vt 0.583358 0.139055
vt 0.583358 0.277923
vt 0.361169 0.138906
vt 0.361169 0.000037
vt 0.138980 0.139055
vt 0.138980 0.277923
vt 0.000112 0.277923
vt 0.000112 0.139055
vt 0.999963 0.000037
vt 0.999963 0.138905
vt 0.999963 0.139055
vt 0.999963 0.277923
vt 0.000112 0.138906
vt 0.000112 0.000037
s 0
f 8/1/1 7/2/1 5/3/1 6/4/1
f 3/5/2 4/6/2 16/7/2 15/8/2
f 6/4/3 5/3/3 1/9/3 2/10/3
f 12/11/2 11/12/2 10/13/2 9/14/2
f 4/6/4 3/5/4 11/12/4 12/11/4
f 7/2/1 8/1/1 9/15/1 10/16/1
f 14/17/4 13/18/4 15/8/4 16/7/4
f 2/10/3 1/9/3 13/19/3 14/20/3
o Cube.001
v -10.000000 5.000000 10.000000
v -10.000000 7.000000 10.000000
v -10.000000 5.000000 -10.000000
v -10.000000 7.000000 -10.000000
v 10.000000 5.000000 10.000000
v 10.000000 7.000000 10.000000
v 10.000000 5.000000 -10.000000
v 10.000000 7.000000 -10.000000
vn -1.0000 -0.0000 -0.0000
vn -0.0000 -0.0000 -1.0000
vn 1.0000 -0.0000 -0.0000
vn -0.0000 -0.0000 1.0000
vn -0.0000 -1.0000 -0.0000
vn -0.0000 1.0000 -0.0000
vt 0.575000 0.481250
vt 0.575000 0.518750
vt 0.537500 0.518750
vt 0.537500 0.481250
vt 0.500000 0.518750
vt 0.500000 0.481250
vt 0.462500 0.518750
vt 0.462500 0.481250
vt 0.425000 0.518750
vt 0.425000 0.481250
vt 0.500000 0.443750
vt 0.462500 0.443750
vt 0.500000 0.556250
vt 0.462500 0.556250
s 0
f 17/21/5 18/22/5 20/23/5 19/24/5
f 19/24/6 20/23/6 24/25/6 23/26/6
f 23/26/7 24/25/7 22/27/7 21/28/7
f 21/28/8 22/27/8 18/29/8 17/30/8
f 19/31/9 23/26/9 21/28/9 17/32/9
f 24/25/10 20/33/10 18/34/10 22/27/10
o Plane
v -7.000000 5.000000 10.100000
v 1.000000 5.000000 10.100000
v -7.000000 8.000000 10.100000
v 1.000000 8.000000 10.100000
vn -0.0000 -0.0000 1.0000
vt 0.000037 0.624963
vt 1.000037 0.624963
vt 1.000037 0.999963
vt 0.000037 0.999963
s 0
f 25/35/11 26/36/11 28/37/11 27/38/11
