# Blender 4.2.0
# www.blender.org
o Plane.001
v -50.000000 -53.459644 -107.711716
v 165.000000 -47.839138 -122.755577
v 165.000000 -47.839138 -107.711716
v 50.000000 -53.459644 -122.755577
v 50.000000 -53.459644 -337.000000
v -50.000000 -51.262783 -337.000000
v 64.714569 -53.459644 -337.000000
v 50.000000 -51.262783 -337.000000
v -165.000000 -45.642277 -122.755577
v 165.000000 -45.642277 -122.755577
v -50.000000 -51.262783 -122.755577
v 50.000000 -51.262783 -122.755577
v -165.000000 -45.642277 -107.711716
v 165.000000 -45.642277 -107.711716
v -50.000000 -51.262783 -107.711716
v 50.000000 -51.262783 -107.711716
v -50.000000 -53.459644 -337.000000
v 64.714569 -51.262783 -337.000000
v 64.714569 -51.262783 -122.755577
v 64.714569 -51.262783 -107.711716
v -64.550201 -51.262783 -337.000000
v -50.000000 -53.459644 -122.755577
v -64.550201 -51.262783 -122.755577
v -64.550201 -51.262783 -107.711716
v 50.000000 -53.459644 -107.711716
v -64.550201 -53.459644 -122.755577
v -165.000000 -47.839138 -122.755577
v 64.714569 -53.459644 -122.755577
v -165.000000 -47.839138 -107.711716
v 64.714569 -53.459644 -107.711716
v -64.550201 -53.459644 -107.711716
v -64.550201 -53.459644 -337.000000
vn -0.0000 -0.0000 -1.0000
vn -0.0000 1.0000 -0.0000
vn -0.0560 0.9984 -0.0000
vn 0.0559 0.9984 -0.0000
vn -0.0000 -0.0000 1.0000
vn 1.0000 -0.0000 -0.0000
vn -1.0000 -0.0000 -0.0000
vt 0.999900 0.350804
vt 0.696066 0.350804
vt 0.304432 0.350805
vt 0.348515 0.350805
vt 0.348515 0.999900
vt 0.304433 0.999900
vt 0.348515 0.305226
vt 0.651485 0.305226
vt 0.651485 0.350804
vt 0.304432 0.305226
vt 0.696066 0.305226
vt 0.999900 0.305226
vt 0.696066 0.999900
vt 0.651485 0.999900
vt 0.000100 0.305226
vt 0.000100 0.350805
s 0
f 10/1/1 2/1/1 28/2/1 19/2/1
f 23/3/2 11/4/2 6/5/2 21/6/2
f 15/7/2 16/8/2 12/9/2 11/4/2
f 24/10/2 15/7/2 11/4/2 23/3/2
f 20/11/3 14/12/3 10/1/3 19/2/3
f 16/8/2 20/11/2 19/2/2 12/9/2
f 12/9/2 19/2/2 18/13/2 8/14/2
f 13/15/4 24/10/4 23/3/4 9/16/4
f 24/10/5 31/10/5 1/7/5 15/7/5
f 20/11/5 30/11/5 3/12/5 14/12/5
f 11/4/6 22/4/6 17/5/6 6/5/6
f 16/8/5 25/8/5 30/11/5 20/11/5
f 12/9/1 4/9/1 22/4/1 11/4/1
f 13/15/5 29/15/5 31/10/5 24/10/5
f 21/6/7 32/6/7 26/3/7 23/3/7
f 23/3/1 26/3/1 27/16/1 9/16/1
f 19/2/6 28/2/6 7/13/6 18/13/6
f 18/13/1 7/13/1 5/14/1 8/14/1
f 15/7/5 1/7/5 25/8/5 16/8/5
f 6/5/1 17/5/1 32/6/1 21/6/1
f 8/14/7 5/14/7 4/9/7 12/9/7
f 9/16/7 27/16/7 29/15/7 13/15/7
f 14/12/6 3/12/6 2/1/6 10/1/6
