# Blender 4.2.0
# www.blender.org
o Cylinder
v 0.000000 9.036759 12.020379
v 1.762984 8.863120 12.020378
v 3.458218 8.348877 12.020378
v 5.020554 7.513791 12.020377
v 6.389953 6.389954 12.020379
v 7.513790 5.020555 12.020378
v 8.348876 3.458219 12.020379
v 8.863119 1.762985 12.020379
v 9.036758 0.000001 12.020379
v -9.036758 0.000001 12.020379
v -8.863119 1.762985 12.020379
v -8.348876 3.458219 12.020379
v -7.513790 5.020555 12.020378
v -6.389953 6.389954 12.020379
v -5.020554 7.513791 12.020377
v -3.458218 8.348877 12.020378
v -1.762984 8.863120 12.020378
v 0.000000 9.036759 4.808150
v 1.762984 8.863120 4.808151
v 3.458218 8.348877 4.808151
v 5.020555 7.513791 4.808151
v 6.389953 6.389954 4.808151
v 7.513790 5.020555 4.808151
v 8.348876 3.458218 4.808151
v 8.863119 1.762984 4.808151
v 9.036758 0.000000 4.808151
v -9.036758 -13.222417 4.808153
v 9.036758 -13.222417 4.808153
v -9.036758 -13.222416 12.020381
v 9.036758 -13.222416 12.020381
v -9.036758 0.000000 4.808151
v -8.863119 1.762984 4.808151
v -8.348876 3.458218 4.808151
v -7.513790 5.020555 4.808151
v -6.389953 6.389954 4.808151
v -5.020554 7.513791 4.808151
v -3.458218 8.348877 4.808151
v -1.762984 8.863120 4.808151
vn 1.0000 -0.0000 -0.0000
vn -1.0000 -0.0000 -0.0000
vn -0.0000 -0.0000 1.0000
vn -0.2903 -0.9569 -0.0000
vn 0.6344 -0.7730 -0.0000
vn -0.4714 -0.8819 -0.0000
vn 0.4714 -0.8819 -0.0000
vn -0.6344 -0.7730 -0.0000
vn 0.2903 -0.9569 -0.0000
vn -0.7730 -0.6344 -0.0000
vn 0.0980 -0.9952 -0.0000
vn -0.8819 -0.4714 -0.0000
vn -0.9569 -0.2903 -0.0000
vn -0.9952 -0.0980 -0.0000
vn 0.9952 -0.0980 -0.0000
vn 0.9569 -0.2903 -0.0000
vn 0.8819 -0.4714 -0.0000
vn -0.0980 -0.9952 -0.0000
vn 0.7730 -0.6344 -0.0000
vt 0.250000 1.000000
vt 0.750000 1.000000
vt 0.781250 1.000000
vt 0.812500 1.000000
vt 0.843750 1.000000
vt 0.875000 1.000000
vt 0.906250 1.000000
vt 0.937500 1.000000
vt 0.968750 1.000000
vt 0.000000 1.000000
vt 0.031250 1.000000
vt 0.062500 1.000000
vt 0.093750 1.000000
vt 0.125000 1.000000
vt 0.156250 1.000000
vt 0.187500 1.000000
vt 0.218750 1.000000
vt 1.000000 1.000000
s 0
f 31/1/1 10/1/1 29/1/1 27/1/1
f 9/2/2 26/2/2 28/2/2 30/2/2
f 27/1/3 28/2/3 26/2/3 25/3/3 24/4/3 23/5/3 22/6/3 21/7/3 20/8/3 19/9/3 18/10/3 38/11/3 37/12/3 36/13/3 35/14/3 34/15/3 33/16/3 32/17/3 31/1/3
f 3/8/4 2/9/4 19/9/4 20/8/4
f 15/13/5 14/14/5 35/14/5 36/13/5
f 4/7/6 3/8/6 20/8/6 21/7/6
f 16/12/7 15/13/7 36/13/7 37/12/7
f 5/6/8 4/7/8 21/7/8 22/6/8
f 17/11/9 16/12/9 37/12/9 38/11/9
f 6/5/10 5/6/10 22/6/10 23/5/10
f 1/10/11 17/11/11 38/11/11 18/10/11
f 7/4/12 6/5/12 23/5/12 24/4/12
f 8/3/13 7/4/13 24/4/13 25/3/13
f 9/2/14 8/3/14 25/3/14 26/2/14
f 11/17/15 10/1/15 31/1/15 32/17/15
f 12/16/16 11/17/16 32/17/16 33/16/16
f 13/15/17 12/16/17 33/16/17 34/15/17
f 2/9/18 1/18/18 18/18/18 19/9/18
f 14/14/19 13/15/19 34/15/19 35/14/19
o Cylinder.001
v 0.000000 12.020379 8.414266
v 0.000000 12.020381 12.020379
v 2.345060 11.789412 8.414265
v 2.345060 11.789412 12.020377
v 4.600000 11.105383 8.414265
v 4.600000 11.105383 12.020377
v 6.678165 9.994580 8.414266
v 6.678165 9.994580 12.020378
v 8.499691 8.499692 8.414266
v 8.499691 8.499692 12.020378
v 9.994579 6.678165 8.414265
v 9.994579 6.678165 12.020377
v 11.105382 4.600001 8.414267
v 11.105382 4.600001 12.020379
v 11.789411 2.345061 8.414266
v 11.789411 2.345061 12.020379
v 12.020379 0.000001 8.414266
v 12.020379 0.000001 12.020379
v -12.020379 0.000001 8.414266
v -12.020379 0.000001 12.020379
v -11.789411 2.345061 8.414266
v -11.789411 2.345061 12.020379
v -11.105382 4.600001 8.414267
v -11.105382 4.600001 12.020379
v -9.994579 6.678165 8.414265
v -9.994579 6.678165 12.020377
v -8.499691 8.499692 8.414266
v -8.499691 8.499692 12.020378
v -6.678165 9.994580 8.414266
v -6.678165 9.994580 12.020378
v -4.600000 11.105383 8.414265
v -4.600000 11.105383 12.020377
v -2.345060 11.789412 8.414265
v -2.345060 11.789412 12.020377
v 0.000000 9.036759 12.020379
v 1.762984 8.863120 12.020378
v 3.458218 8.348877 12.020378
v 5.020554 7.513791 12.020377
v 6.389953 6.389954 12.020379
v 7.513790 5.020555 12.020378
v 8.348876 3.458219 12.020379
v 8.863119 1.762985 12.020379
v 9.036758 0.000001 12.020379
v -9.036758 0.000001 12.020379
v -8.863119 1.762985 12.020379
v -8.348876 3.458219 12.020379
v -7.513790 5.020555 12.020378
v -6.389953 6.389954 12.020379
v -5.020554 7.513791 12.020377
v -3.458218 8.348877 12.020378
v -1.762984 8.863120 12.020378
v 0.000000 11.362554 8.414266
v 2.216724 11.144225 8.414266
v 4.348261 10.497631 8.414266
v 6.312696 9.447618 8.414266
v 8.034538 8.034538 8.414265
v 9.447618 6.312697 8.414265
v 10.497630 4.348262 8.414267
v 11.144224 2.216725 8.414266
v 11.362554 0.000001 8.414266
v -11.362554 0.000001 8.414266
v -11.144224 2.216725 8.414266
v -10.497630 4.348262 8.414267
v -9.447618 6.312697 8.414265
v -8.034538 8.034538 8.414265
v -6.312696 9.447618 8.414266
v -4.348261 10.497631 8.414266
v -2.216724 11.144225 8.414266
v -0.000000 11.362554 -82.434761
v 2.216724 11.144224 -82.434761
v 4.348261 10.497630 -82.434761
v 6.312696 9.447617 -82.434761
v 8.034538 8.034536 -82.434761
v 9.447618 6.312695 -82.434761
v 10.497630 4.348260 -82.434761
v 11.144224 2.216724 -82.434761
v 11.362554 -0.000001 -82.434761
v -11.362554 -0.000001 -82.434761
v -11.144224 2.216724 -82.434761
v -10.497630 4.348260 -82.434761
v -9.447618 6.312695 -82.434761
v -8.034538 8.034536 -82.434761
v -6.312696 9.447617 -82.434761
v -4.348261 10.497630 -82.434761
v -2.216724 11.144224 -82.434761
v -11.362554 -13.222419 -82.434761
v 11.362554 -13.222419 -82.434761
v -11.362554 -13.222417 8.414267
v 11.362554 -13.222417 8.414267
v -9.036758 -13.222416 12.020381
v 9.036758 -13.222416 12.020381
v -12.020379 -13.222416 12.020381
v -12.020379 -13.222417 8.414267
v 12.020379 -13.222416 12.020381
v 12.020379 -13.222417 8.414267
vn 0.0980 0.9952 -0.0000
vn 0.2903 0.9569 -0.0000
vn 0.4714 0.8819 -0.0000
vn 0.6344 0.7730 -0.0000
vn 0.7730 0.6344 -0.0000
vn 0.8819 0.4714 -0.0000
vn 0.9569 0.2903 -0.0000
vn 0.9952 0.0980 -0.0000
vn -0.9952 0.0980 -0.0000
vn -0.9569 0.2903 -0.0000
vn -0.8819 0.4714 -0.0000
vn -0.7730 0.6344 -0.0000
vn -0.6344 0.7730 -0.0000
vn -0.4714 0.8819 -0.0000
vn -0.0000 -0.0000 1.0000
vn -0.2903 0.9569 -0.0000
vn -0.0980 0.9952 -0.0000
vn -0.0000 -0.0000 -1.0000
vn -1.0000 -0.0000 -0.0000
vn 1.0000 -0.0000 -0.0000
vt 1.000000 0.500000
vt 1.000000 1.000000
vt 0.968750 1.000000
vt 0.968750 0.500000
vt 0.937500 1.000000
vt 0.937500 0.500000
vt 0.906250 1.000000
vt 0.906250 0.500000
vt 0.875000 1.000000
vt 0.875000 0.500000
vt 0.843750 1.000000
vt 0.843750 0.500000
vt 0.812500 1.000000
vt 0.812500 0.500000
vt 0.781250 1.000000
vt 0.781250 0.500000
vt 0.750000 1.000000
vt 0.750000 0.500000
vt 0.250000 0.500000
vt 0.250000 1.000000
vt 0.218750 1.000000
vt 0.218750 0.500000
vt 0.187500 1.000000
vt 0.187500 0.500000
vt 0.156250 1.000000
vt 0.156250 0.500000
vt 0.125000 1.000000
vt 0.125000 0.500000
vt 0.093750 1.000000
vt 0.093750 0.500000
vt 0.062500 1.000000
vt 0.062500 0.500000
vt 0.031250 1.000000
vt 0.031250 0.500000
vt 0.000000 1.000000
vt 0.000000 0.500000
s 0
f 39/19/20 40/20/20 42/21/20 41/22/20
f 41/22/21 42/21/21 44/23/21 43/24/21
f 43/24/22 44/23/22 46/25/22 45/26/22
f 45/26/23 46/25/23 48/27/23 47/28/23
f 47/28/24 48/27/24 50/29/24 49/30/24
f 49/30/25 50/29/25 52/31/25 51/32/25
f 51/32/26 52/31/26 54/33/26 53/34/26
f 53/34/27 54/33/27 56/35/27 55/36/27
f 57/37/28 58/38/28 60/39/28 59/40/28
f 59/40/29 60/39/29 62/41/29 61/42/29
f 61/42/30 62/41/30 64/43/30 63/44/30
f 63/44/31 64/43/31 66/45/31 65/46/31
f 65/46/32 66/45/32 68/47/32 67/48/32
f 67/48/33 68/47/33 70/49/33 69/50/33
f 70/49/34 68/47/34 87/47/34 88/49/34
f 69/50/35 70/49/35 72/51/35 71/52/35
f 71/52/36 72/51/36 40/53/36 39/54/36
f 56/35/34 54/33/34 80/33/34 81/35/34
f 62/41/34 60/39/34 83/39/34 84/41/34
f 48/27/34 46/25/34 76/25/34 77/27/34
f 72/51/34 70/49/34 88/49/34 89/51/34
f 64/43/34 62/41/34 84/41/34 85/43/34
f 50/29/34 48/27/34 77/27/34 78/29/34
f 42/21/34 40/20/34 73/20/34 74/21/34
f 40/53/34 72/51/34 89/51/34 73/53/34
f 66/45/34 64/43/34 85/43/34 86/45/34
f 52/31/34 50/29/34 78/29/34 79/31/34
f 44/23/34 42/21/34 74/21/34 75/23/34
f 68/47/34 66/45/34 86/45/34 87/47/34
f 54/33/34 52/31/34 79/31/34 80/33/34
f 60/39/34 58/38/34 82/38/34 83/39/34
f 46/25/34 44/23/34 75/23/34 76/25/34
f 56/35/34 81/35/34 129/35/34 132/35/34
f 41/22/37 43/24/37 92/24/37 91/22/37
f 65/46/37 67/48/37 104/48/37 103/46/37
f 51/32/37 53/34/37 97/34/37 96/32/37
f 57/37/37 59/40/37 100/40/37 99/37/37
f 43/24/37 45/26/37 93/26/37 92/24/37
f 67/48/37 69/50/37 105/50/37 104/48/37
f 53/34/37 55/36/37 98/36/37 97/34/37
f 59/40/37 61/42/37 101/42/37 100/40/37
f 45/26/37 47/28/37 94/28/37 93/26/37
f 69/50/37 71/52/37 106/52/37 105/50/37
f 61/42/37 63/44/37 102/44/37 101/42/37
f 47/28/37 49/30/37 95/30/37 94/28/37
f 39/19/37 41/22/37 91/22/37 90/19/37
f 71/52/37 39/54/37 90/54/37 106/52/37
f 63/44/37 65/46/37 103/46/37 102/44/37
f 49/30/37 51/32/37 96/32/37 95/30/37
f 99/37/38 116/37/38 124/37/38 126/37/38
f 94/28/24 95/30/24 112/30/24 111/28/24
f 106/52/36 90/54/36 107/54/36 123/52/36
f 95/30/25 96/32/25 113/32/25 112/30/25
f 98/36/37 55/36/37 133/36/37 127/36/37
f 96/32/26 97/34/26 114/34/26 113/32/26
f 58/38/38 57/37/38 131/37/38 130/38/38
f 97/34/27 98/36/27 115/36/27 114/34/27
f 55/36/39 56/35/39 132/35/39 133/36/39
f 57/37/37 99/37/37 126/37/37 131/37/37
f 99/37/28 100/40/28 117/40/28 116/37/28
f 100/40/29 101/42/29 118/42/29 117/40/29
f 101/42/30 102/44/30 119/44/30 118/42/30
f 90/19/20 91/22/20 108/22/20 107/19/20
f 102/44/31 103/46/31 120/46/31 119/44/31
f 91/22/21 92/24/21 109/24/21 108/22/21
f 103/46/32 104/48/32 121/48/32 120/46/32
f 92/24/22 93/26/22 110/26/22 109/24/22
f 104/48/33 105/50/33 122/50/33 121/48/33
f 115/36/39 98/36/39 127/36/39 125/36/39
f 93/26/23 94/28/23 111/28/23 110/26/23
f 105/50/35 106/52/35 123/52/35 122/50/35
f 82/38/34 58/38/34 130/38/34 128/38/34
